<?xml version="1.0" encoding="utf-8" standalone="no"?>
<!DOCTYPE svg PUBLIC "-//W3C//DTD SVG 1.1//EN"
  "http://www.w3.org/Graphics/SVG/1.1/DTD/svg11.dtd">
<svg xmlns:xlink="http://www.w3.org/1999/xlink" width="241.2pt" height="144pt" viewBox="0 0 241.2 144" xmlns="http://www.w3.org/2000/svg" version="1.1">
 <metadata>
  <rdf:RDF xmlns:dc="http://purl.org/dc/elements/1.1/" xmlns:cc="http://creativecommons.org/ns#" xmlns:rdf="http://www.w3.org/1999/02/22-rdf-syntax-ns#">
   <cc:Work>
    <dc:type rdf:resource="http://purl.org/dc/dcmitype/StillImage"/>
    <dc:date>2024-01-14T19:21:35.502368</dc:date>
    <dc:format>image/svg+xml</dc:format>
    <dc:creator>
     <cc:Agent>
      <dc:title>Matplotlib v3.8.2, https://matplotlib.org/</dc:title>
     </cc:Agent>
    </dc:creator>
   </cc:Work>
  </rdf:RDF>
 </metadata>
 <defs>
  <style type="text/css">*{stroke-linejoin: round; stroke-linecap: butt}</style>
 </defs>
 <g id="figure_1">
  <g id="patch_1">
   <path d="M 0 144 
L 241.2 144 
L 241.2 0 
L 0 0 
z
" style="fill: #ffffff"/>
  </g>
  <g id="axes_1">
   <g id="patch_2">
    <path d="M 32.3125 119.215 
L 233.03875 119.215 
L 233.03875 1.8 
L 32.3125 1.8 
z
" style="fill: #ffffff"/>
   </g>
   <g id="matplotlib.axis_1">
    <g id="xtick_1">
     <g id="line2d_1">
      <defs>
       <path id="mbe0985808c" d="M 0 0 
L 0 -3.5 
" style="stroke: #000000; stroke-width: 0.8"/>
      </defs>
      <g>
       <use xlink:href="#mbe0985808c" x="32.3125" y="119.215" style="stroke: #000000; stroke-width: 0.8"/>
      </g>
     </g>
     <g id="line2d_2">
      <defs>
       <path id="m96375fce45" d="M 0 0 
L 0 3.5 
" style="stroke: #000000; stroke-width: 0.8"/>
      </defs>
      <g>
       <use xlink:href="#m96375fce45" x="32.3125" y="1.8" style="stroke: #000000; stroke-width: 0.8"/>
      </g>
     </g>
     <g id="text_1">
      <!-- 0.0 -->
      <g transform="translate(25.95125 128.79375) scale(0.08 -0.08)">
       <defs>
        <path id="DejaVuSans-30" d="M 2034 4250 
Q 1547 4250 1301 3770 
Q 1056 3291 1056 2328 
Q 1056 1369 1301 889 
Q 1547 409 2034 409 
Q 2525 409 2770 889 
Q 3016 1369 3016 2328 
Q 3016 3291 2770 3770 
Q 2525 4250 2034 4250 
z
M 2034 4750 
Q 2819 4750 3233 4129 
Q 3647 3509 3647 2328 
Q 3647 1150 3233 529 
Q 2819 -91 2034 -91 
Q 1250 -91 836 529 
Q 422 1150 422 2328 
Q 422 3509 836 4129 
Q 1250 4750 2034 4750 
z
" transform="scale(0.015625)"/>
        <path id="DejaVuSans-2e" d="M 684 794 
L 1344 794 
L 1344 0 
L 684 0 
L 684 794 
z
" transform="scale(0.015625)"/>
       </defs>
       <use xlink:href="#DejaVuSans-30"/>
       <use xlink:href="#DejaVuSans-2e" x="63.623047"/>
       <use xlink:href="#DejaVuSans-30" x="95.410156"/>
      </g>
     </g>
    </g>
    <g id="xtick_2">
     <g id="line2d_3">
      <g>
       <use xlink:href="#mbe0985808c" x="72.45775" y="119.215" style="stroke: #000000; stroke-width: 0.8"/>
      </g>
     </g>
     <g id="line2d_4">
      <g>
       <use xlink:href="#m96375fce45" x="72.45775" y="1.8" style="stroke: #000000; stroke-width: 0.8"/>
      </g>
     </g>
     <g id="text_2">
      <!-- 0.2 -->
      <g transform="translate(66.0965 128.79375) scale(0.08 -0.08)">
       <defs>
        <path id="DejaVuSans-32" d="M 1228 531 
L 3431 531 
L 3431 0 
L 469 0 
L 469 531 
Q 828 903 1448 1529 
Q 2069 2156 2228 2338 
Q 2531 2678 2651 2914 
Q 2772 3150 2772 3378 
Q 2772 3750 2511 3984 
Q 2250 4219 1831 4219 
Q 1534 4219 1204 4116 
Q 875 4013 500 3803 
L 500 4441 
Q 881 4594 1212 4672 
Q 1544 4750 1819 4750 
Q 2544 4750 2975 4387 
Q 3406 4025 3406 3419 
Q 3406 3131 3298 2873 
Q 3191 2616 2906 2266 
Q 2828 2175 2409 1742 
Q 1991 1309 1228 531 
z
" transform="scale(0.015625)"/>
       </defs>
       <use xlink:href="#DejaVuSans-30"/>
       <use xlink:href="#DejaVuSans-2e" x="63.623047"/>
       <use xlink:href="#DejaVuSans-32" x="95.410156"/>
      </g>
     </g>
    </g>
    <g id="xtick_3">
     <g id="line2d_5">
      <g>
       <use xlink:href="#mbe0985808c" x="112.603" y="119.215" style="stroke: #000000; stroke-width: 0.8"/>
      </g>
     </g>
     <g id="line2d_6">
      <g>
       <use xlink:href="#m96375fce45" x="112.603" y="1.8" style="stroke: #000000; stroke-width: 0.8"/>
      </g>
     </g>
     <g id="text_3">
      <!-- 0.4 -->
      <g transform="translate(106.24175 128.79375) scale(0.08 -0.08)">
       <defs>
        <path id="DejaVuSans-34" d="M 2419 4116 
L 825 1625 
L 2419 1625 
L 2419 4116 
z
M 2253 4666 
L 3047 4666 
L 3047 1625 
L 3713 1625 
L 3713 1100 
L 3047 1100 
L 3047 0 
L 2419 0 
L 2419 1100 
L 313 1100 
L 313 1709 
L 2253 4666 
z
" transform="scale(0.015625)"/>
       </defs>
       <use xlink:href="#DejaVuSans-30"/>
       <use xlink:href="#DejaVuSans-2e" x="63.623047"/>
       <use xlink:href="#DejaVuSans-34" x="95.410156"/>
      </g>
     </g>
    </g>
    <g id="xtick_4">
     <g id="line2d_7">
      <g>
       <use xlink:href="#mbe0985808c" x="152.74825" y="119.215" style="stroke: #000000; stroke-width: 0.8"/>
      </g>
     </g>
     <g id="line2d_8">
      <g>
       <use xlink:href="#m96375fce45" x="152.74825" y="1.8" style="stroke: #000000; stroke-width: 0.8"/>
      </g>
     </g>
     <g id="text_4">
      <!-- 0.6 -->
      <g transform="translate(146.387 128.79375) scale(0.08 -0.08)">
       <defs>
        <path id="DejaVuSans-36" d="M 2113 2584 
Q 1688 2584 1439 2293 
Q 1191 2003 1191 1497 
Q 1191 994 1439 701 
Q 1688 409 2113 409 
Q 2538 409 2786 701 
Q 3034 994 3034 1497 
Q 3034 2003 2786 2293 
Q 2538 2584 2113 2584 
z
M 3366 4563 
L 3366 3988 
Q 3128 4100 2886 4159 
Q 2644 4219 2406 4219 
Q 1781 4219 1451 3797 
Q 1122 3375 1075 2522 
Q 1259 2794 1537 2939 
Q 1816 3084 2150 3084 
Q 2853 3084 3261 2657 
Q 3669 2231 3669 1497 
Q 3669 778 3244 343 
Q 2819 -91 2113 -91 
Q 1303 -91 875 529 
Q 447 1150 447 2328 
Q 447 3434 972 4092 
Q 1497 4750 2381 4750 
Q 2619 4750 2861 4703 
Q 3103 4656 3366 4563 
z
" transform="scale(0.015625)"/>
       </defs>
       <use xlink:href="#DejaVuSans-30"/>
       <use xlink:href="#DejaVuSans-2e" x="63.623047"/>
       <use xlink:href="#DejaVuSans-36" x="95.410156"/>
      </g>
     </g>
    </g>
    <g id="xtick_5">
     <g id="line2d_9">
      <g>
       <use xlink:href="#mbe0985808c" x="192.8935" y="119.215" style="stroke: #000000; stroke-width: 0.8"/>
      </g>
     </g>
     <g id="line2d_10">
      <g>
       <use xlink:href="#m96375fce45" x="192.8935" y="1.8" style="stroke: #000000; stroke-width: 0.8"/>
      </g>
     </g>
     <g id="text_5">
      <!-- 0.8 -->
      <g transform="translate(186.53225 128.79375) scale(0.08 -0.08)">
       <defs>
        <path id="DejaVuSans-38" d="M 2034 2216 
Q 1584 2216 1326 1975 
Q 1069 1734 1069 1313 
Q 1069 891 1326 650 
Q 1584 409 2034 409 
Q 2484 409 2743 651 
Q 3003 894 3003 1313 
Q 3003 1734 2745 1975 
Q 2488 2216 2034 2216 
z
M 1403 2484 
Q 997 2584 770 2862 
Q 544 3141 544 3541 
Q 544 4100 942 4425 
Q 1341 4750 2034 4750 
Q 2731 4750 3128 4425 
Q 3525 4100 3525 3541 
Q 3525 3141 3298 2862 
Q 3072 2584 2669 2484 
Q 3125 2378 3379 2068 
Q 3634 1759 3634 1313 
Q 3634 634 3220 271 
Q 2806 -91 2034 -91 
Q 1263 -91 848 271 
Q 434 634 434 1313 
Q 434 1759 690 2068 
Q 947 2378 1403 2484 
z
M 1172 3481 
Q 1172 3119 1398 2916 
Q 1625 2713 2034 2713 
Q 2441 2713 2670 2916 
Q 2900 3119 2900 3481 
Q 2900 3844 2670 4047 
Q 2441 4250 2034 4250 
Q 1625 4250 1398 4047 
Q 1172 3844 1172 3481 
z
" transform="scale(0.015625)"/>
       </defs>
       <use xlink:href="#DejaVuSans-30"/>
       <use xlink:href="#DejaVuSans-2e" x="63.623047"/>
       <use xlink:href="#DejaVuSans-38" x="95.410156"/>
      </g>
     </g>
    </g>
    <g id="xtick_6">
     <g id="line2d_11">
      <g>
       <use xlink:href="#mbe0985808c" x="233.03875" y="119.215" style="stroke: #000000; stroke-width: 0.8"/>
      </g>
     </g>
     <g id="line2d_12">
      <g>
       <use xlink:href="#m96375fce45" x="233.03875" y="1.8" style="stroke: #000000; stroke-width: 0.8"/>
      </g>
     </g>
     <g id="text_6">
      <!-- 1.0 -->
      <g transform="translate(226.6775 128.79375) scale(0.08 -0.08)">
       <defs>
        <path id="DejaVuSans-31" d="M 794 531 
L 1825 531 
L 1825 4091 
L 703 3866 
L 703 4441 
L 1819 4666 
L 2450 4666 
L 2450 531 
L 3481 531 
L 3481 0 
L 794 0 
L 794 531 
z
" transform="scale(0.015625)"/>
       </defs>
       <use xlink:href="#DejaVuSans-31"/>
       <use xlink:href="#DejaVuSans-2e" x="63.623047"/>
       <use xlink:href="#DejaVuSans-30" x="95.410156"/>
      </g>
     </g>
    </g>
    <g id="text_7">
     <!-- IoU -->
     <g transform="translate(126.120625 140.53625) scale(0.08 -0.08)">
      <defs>
       <path id="DejaVuSans-49" d="M 628 4666 
L 1259 4666 
L 1259 0 
L 628 0 
L 628 4666 
z
" transform="scale(0.015625)"/>
       <path id="DejaVuSans-6f" d="M 1959 3097 
Q 1497 3097 1228 2736 
Q 959 2375 959 1747 
Q 959 1119 1226 758 
Q 1494 397 1959 397 
Q 2419 397 2687 759 
Q 2956 1122 2956 1747 
Q 2956 2369 2687 2733 
Q 2419 3097 1959 3097 
z
M 1959 3584 
Q 2709 3584 3137 3096 
Q 3566 2609 3566 1747 
Q 3566 888 3137 398 
Q 2709 -91 1959 -91 
Q 1206 -91 779 398 
Q 353 888 353 1747 
Q 353 2609 779 3096 
Q 1206 3584 1959 3584 
z
" transform="scale(0.015625)"/>
       <path id="DejaVuSans-55" d="M 556 4666 
L 1191 4666 
L 1191 1831 
Q 1191 1081 1462 751 
Q 1734 422 2344 422 
Q 2950 422 3222 751 
Q 3494 1081 3494 1831 
L 3494 4666 
L 4128 4666 
L 4128 1753 
Q 4128 841 3676 375 
Q 3225 -91 2344 -91 
Q 1459 -91 1007 375 
Q 556 841 556 1753 
L 556 4666 
z
" transform="scale(0.015625)"/>
      </defs>
      <use xlink:href="#DejaVuSans-49"/>
      <use xlink:href="#DejaVuSans-6f" x="29.492188"/>
      <use xlink:href="#DejaVuSans-55" x="90.673828"/>
     </g>
    </g>
   </g>
   <g id="matplotlib.axis_2">
    <g id="ytick_1">
     <g id="line2d_13">
      <defs>
       <path id="m1a3c6bf75d" d="M 0 0 
L 3.5 0 
" style="stroke: #000000; stroke-width: 0.8"/>
      </defs>
      <g>
       <use xlink:href="#m1a3c6bf75d" x="32.3125" y="119.215" style="stroke: #000000; stroke-width: 0.8"/>
      </g>
     </g>
     <g id="line2d_14">
      <defs>
       <path id="m8e124e5a4e" d="M 0 0 
L -3.5 0 
" style="stroke: #000000; stroke-width: 0.8"/>
      </defs>
      <g>
       <use xlink:href="#m8e124e5a4e" x="233.03875" y="119.215" style="stroke: #000000; stroke-width: 0.8"/>
      </g>
     </g>
     <g id="text_8">
      <!-- 0 -->
      <g transform="translate(23.7225 122.254375) scale(0.08 -0.08)">
       <use xlink:href="#DejaVuSans-30"/>
      </g>
     </g>
    </g>
    <g id="ytick_2">
     <g id="line2d_15">
      <g>
       <use xlink:href="#m1a3c6bf75d" x="32.3125" y="89.474625" style="stroke: #000000; stroke-width: 0.8"/>
      </g>
     </g>
     <g id="line2d_16">
      <g>
       <use xlink:href="#m8e124e5a4e" x="233.03875" y="89.474625" style="stroke: #000000; stroke-width: 0.8"/>
      </g>
     </g>
     <g id="text_9">
      <!-- 100 -->
      <g transform="translate(13.5425 92.514) scale(0.08 -0.08)">
       <use xlink:href="#DejaVuSans-31"/>
       <use xlink:href="#DejaVuSans-30" x="63.623047"/>
       <use xlink:href="#DejaVuSans-30" x="127.246094"/>
      </g>
     </g>
    </g>
    <g id="ytick_3">
     <g id="line2d_17">
      <g>
       <use xlink:href="#m1a3c6bf75d" x="32.3125" y="59.73425" style="stroke: #000000; stroke-width: 0.8"/>
      </g>
     </g>
     <g id="line2d_18">
      <g>
       <use xlink:href="#m8e124e5a4e" x="233.03875" y="59.73425" style="stroke: #000000; stroke-width: 0.8"/>
      </g>
     </g>
     <g id="text_10">
      <!-- 200 -->
      <g transform="translate(13.5425 62.773625) scale(0.08 -0.08)">
       <use xlink:href="#DejaVuSans-32"/>
       <use xlink:href="#DejaVuSans-30" x="63.623047"/>
       <use xlink:href="#DejaVuSans-30" x="127.246094"/>
      </g>
     </g>
    </g>
    <g id="ytick_4">
     <g id="line2d_19">
      <g>
       <use xlink:href="#m1a3c6bf75d" x="32.3125" y="29.993875" style="stroke: #000000; stroke-width: 0.8"/>
      </g>
     </g>
     <g id="line2d_20">
      <g>
       <use xlink:href="#m8e124e5a4e" x="233.03875" y="29.993875" style="stroke: #000000; stroke-width: 0.8"/>
      </g>
     </g>
     <g id="text_11">
      <!-- 300 -->
      <g transform="translate(13.5425 33.03325) scale(0.08 -0.08)">
       <defs>
        <path id="DejaVuSans-33" d="M 2597 2516 
Q 3050 2419 3304 2112 
Q 3559 1806 3559 1356 
Q 3559 666 3084 287 
Q 2609 -91 1734 -91 
Q 1441 -91 1130 -33 
Q 819 25 488 141 
L 488 750 
Q 750 597 1062 519 
Q 1375 441 1716 441 
Q 2309 441 2620 675 
Q 2931 909 2931 1356 
Q 2931 1769 2642 2001 
Q 2353 2234 1838 2234 
L 1294 2234 
L 1294 2753 
L 1863 2753 
Q 2328 2753 2575 2939 
Q 2822 3125 2822 3475 
Q 2822 3834 2567 4026 
Q 2313 4219 1838 4219 
Q 1578 4219 1281 4162 
Q 984 4106 628 3988 
L 628 4550 
Q 988 4650 1302 4700 
Q 1616 4750 1894 4750 
Q 2613 4750 3031 4423 
Q 3450 4097 3450 3541 
Q 3450 3153 3228 2886 
Q 3006 2619 2597 2516 
z
" transform="scale(0.015625)"/>
       </defs>
       <use xlink:href="#DejaVuSans-33"/>
       <use xlink:href="#DejaVuSans-30" x="63.623047"/>
       <use xlink:href="#DejaVuSans-30" x="127.246094"/>
      </g>
     </g>
    </g>
    <g id="text_12">
     <!-- Count -->
     <g transform="translate(7.87875 72.38625) rotate(-90) scale(0.08 -0.08)">
      <defs>
       <path id="DejaVuSans-43" d="M 4122 4306 
L 4122 3641 
Q 3803 3938 3442 4084 
Q 3081 4231 2675 4231 
Q 1875 4231 1450 3742 
Q 1025 3253 1025 2328 
Q 1025 1406 1450 917 
Q 1875 428 2675 428 
Q 3081 428 3442 575 
Q 3803 722 4122 1019 
L 4122 359 
Q 3791 134 3420 21 
Q 3050 -91 2638 -91 
Q 1578 -91 968 557 
Q 359 1206 359 2328 
Q 359 3453 968 4101 
Q 1578 4750 2638 4750 
Q 3056 4750 3426 4639 
Q 3797 4528 4122 4306 
z
" transform="scale(0.015625)"/>
       <path id="DejaVuSans-75" d="M 544 1381 
L 544 3500 
L 1119 3500 
L 1119 1403 
Q 1119 906 1312 657 
Q 1506 409 1894 409 
Q 2359 409 2629 706 
Q 2900 1003 2900 1516 
L 2900 3500 
L 3475 3500 
L 3475 0 
L 2900 0 
L 2900 538 
Q 2691 219 2414 64 
Q 2138 -91 1772 -91 
Q 1169 -91 856 284 
Q 544 659 544 1381 
z
M 1991 3584 
L 1991 3584 
z
" transform="scale(0.015625)"/>
       <path id="DejaVuSans-6e" d="M 3513 2113 
L 3513 0 
L 2938 0 
L 2938 2094 
Q 2938 2591 2744 2837 
Q 2550 3084 2163 3084 
Q 1697 3084 1428 2787 
Q 1159 2491 1159 1978 
L 1159 0 
L 581 0 
L 581 3500 
L 1159 3500 
L 1159 2956 
Q 1366 3272 1645 3428 
Q 1925 3584 2291 3584 
Q 2894 3584 3203 3211 
Q 3513 2838 3513 2113 
z
" transform="scale(0.015625)"/>
       <path id="DejaVuSans-74" d="M 1172 4494 
L 1172 3500 
L 2356 3500 
L 2356 3053 
L 1172 3053 
L 1172 1153 
Q 1172 725 1289 603 
Q 1406 481 1766 481 
L 2356 481 
L 2356 0 
L 1766 0 
Q 1100 0 847 248 
Q 594 497 594 1153 
L 594 3053 
L 172 3053 
L 172 3500 
L 594 3500 
L 594 4494 
L 1172 4494 
z
" transform="scale(0.015625)"/>
      </defs>
      <use xlink:href="#DejaVuSans-43"/>
      <use xlink:href="#DejaVuSans-6f" x="69.824219"/>
      <use xlink:href="#DejaVuSans-75" x="131.005859"/>
      <use xlink:href="#DejaVuSans-6e" x="194.384766"/>
      <use xlink:href="#DejaVuSans-74" x="257.763672"/>
     </g>
    </g>
   </g>
   <g id="patch_3">
    <path d="M 32.3125 119.215 
L 34.295922 119.215 
L 34.295922 118.322789 
L 32.3125 118.322789 
z
" clip-path="url(#pf42b2bf9c1)" style="fill: #3b528b"/>
   </g>
   <g id="patch_4">
    <path d="M 34.295922 119.215 
L 36.279343 119.215 
L 36.279343 119.215 
L 34.295922 119.215 
z
" clip-path="url(#pf42b2bf9c1)" style="fill: #3b528b"/>
   </g>
   <g id="patch_5">
    <path d="M 36.279343 119.215 
L 38.262765 119.215 
L 38.262765 119.215 
L 36.279343 119.215 
z
" clip-path="url(#pf42b2bf9c1)" style="fill: #3b528b"/>
   </g>
   <g id="patch_6">
    <path d="M 38.262765 119.215 
L 40.246187 119.215 
L 40.246187 119.215 
L 38.262765 119.215 
z
" clip-path="url(#pf42b2bf9c1)" style="fill: #3b528b"/>
   </g>
   <g id="patch_7">
    <path d="M 40.246187 119.215 
L 42.229609 119.215 
L 42.229609 119.215 
L 40.246187 119.215 
z
" clip-path="url(#pf42b2bf9c1)" style="fill: #3b528b"/>
   </g>
   <g id="patch_8">
    <path d="M 42.229609 119.215 
L 44.21303 119.215 
L 44.21303 118.917596 
L 42.229609 118.917596 
z
" clip-path="url(#pf42b2bf9c1)" style="fill: #3b528b"/>
   </g>
   <g id="patch_9">
    <path d="M 44.21303 119.215 
L 46.196452 119.215 
L 46.196452 118.917596 
L 44.21303 118.917596 
z
" clip-path="url(#pf42b2bf9c1)" style="fill: #3b528b"/>
   </g>
   <g id="patch_10">
    <path d="M 46.196452 119.215 
L 48.179874 119.215 
L 48.179874 118.620193 
L 46.196452 118.620193 
z
" clip-path="url(#pf42b2bf9c1)" style="fill: #3b528b"/>
   </g>
   <g id="patch_11">
    <path d="M 48.179874 119.215 
L 50.163295 119.215 
L 50.163295 119.215 
L 48.179874 119.215 
z
" clip-path="url(#pf42b2bf9c1)" style="fill: #3b528b"/>
   </g>
   <g id="patch_12">
    <path d="M 50.163295 119.215 
L 52.146717 119.215 
L 52.146717 119.215 
L 50.163295 119.215 
z
" clip-path="url(#pf42b2bf9c1)" style="fill: #3b528b"/>
   </g>
   <g id="patch_13">
    <path d="M 52.146717 119.215 
L 54.130139 119.215 
L 54.130139 119.215 
L 52.146717 119.215 
z
" clip-path="url(#pf42b2bf9c1)" style="fill: #3b528b"/>
   </g>
   <g id="patch_14">
    <path d="M 54.130139 119.215 
L 56.11356 119.215 
L 56.11356 118.917596 
L 54.130139 118.917596 
z
" clip-path="url(#pf42b2bf9c1)" style="fill: #3b528b"/>
   </g>
   <g id="patch_15">
    <path d="M 56.11356 119.215 
L 58.096982 119.215 
L 58.096982 119.215 
L 56.11356 119.215 
z
" clip-path="url(#pf42b2bf9c1)" style="fill: #3b528b"/>
   </g>
   <g id="patch_16">
    <path d="M 58.096982 119.215 
L 60.080404 119.215 
L 60.080404 119.215 
L 58.096982 119.215 
z
" clip-path="url(#pf42b2bf9c1)" style="fill: #3b528b"/>
   </g>
   <g id="patch_17">
    <path d="M 60.080404 119.215 
L 62.063826 119.215 
L 62.063826 119.215 
L 60.080404 119.215 
z
" clip-path="url(#pf42b2bf9c1)" style="fill: #3b528b"/>
   </g>
   <g id="patch_18">
    <path d="M 62.063826 119.215 
L 64.047247 119.215 
L 64.047247 119.215 
L 62.063826 119.215 
z
" clip-path="url(#pf42b2bf9c1)" style="fill: #3b528b"/>
   </g>
   <g id="patch_19">
    <path d="M 64.047247 119.215 
L 66.030669 119.215 
L 66.030669 119.215 
L 64.047247 119.215 
z
" clip-path="url(#pf42b2bf9c1)" style="fill: #3b528b"/>
   </g>
   <g id="patch_20">
    <path d="M 66.030669 119.215 
L 68.014091 119.215 
L 68.014091 119.215 
L 66.030669 119.215 
z
" clip-path="url(#pf42b2bf9c1)" style="fill: #3b528b"/>
   </g>
   <g id="patch_21">
    <path d="M 68.014091 119.215 
L 69.997512 119.215 
L 69.997512 119.215 
L 68.014091 119.215 
z
" clip-path="url(#pf42b2bf9c1)" style="fill: #3b528b"/>
   </g>
   <g id="patch_22">
    <path d="M 69.997512 119.215 
L 71.980934 119.215 
L 71.980934 119.215 
L 69.997512 119.215 
z
" clip-path="url(#pf42b2bf9c1)" style="fill: #3b528b"/>
   </g>
   <g id="patch_23">
    <path d="M 71.980934 119.215 
L 73.964356 119.215 
L 73.964356 119.215 
L 71.980934 119.215 
z
" clip-path="url(#pf42b2bf9c1)" style="fill: #3b528b"/>
   </g>
   <g id="patch_24">
    <path d="M 73.964356 119.215 
L 75.947778 119.215 
L 75.947778 118.917596 
L 73.964356 118.917596 
z
" clip-path="url(#pf42b2bf9c1)" style="fill: #3b528b"/>
   </g>
   <g id="patch_25">
    <path d="M 75.947778 119.215 
L 77.931199 119.215 
L 77.931199 119.215 
L 75.947778 119.215 
z
" clip-path="url(#pf42b2bf9c1)" style="fill: #3b528b"/>
   </g>
   <g id="patch_26">
    <path d="M 77.931199 119.215 
L 79.914621 119.215 
L 79.914621 119.215 
L 77.931199 119.215 
z
" clip-path="url(#pf42b2bf9c1)" style="fill: #3b528b"/>
   </g>
   <g id="patch_27">
    <path d="M 79.914621 119.215 
L 81.898043 119.215 
L 81.898043 118.917596 
L 79.914621 118.917596 
z
" clip-path="url(#pf42b2bf9c1)" style="fill: #3b528b"/>
   </g>
   <g id="patch_28">
    <path d="M 81.898043 119.215 
L 83.881464 119.215 
L 83.881464 118.917596 
L 81.898043 118.917596 
z
" clip-path="url(#pf42b2bf9c1)" style="fill: #3b528b"/>
   </g>
   <g id="patch_29">
    <path d="M 83.881464 119.215 
L 85.864886 119.215 
L 85.864886 118.917596 
L 83.881464 118.917596 
z
" clip-path="url(#pf42b2bf9c1)" style="fill: #3b528b"/>
   </g>
   <g id="patch_30">
    <path d="M 85.864886 119.215 
L 87.848308 119.215 
L 87.848308 119.215 
L 85.864886 119.215 
z
" clip-path="url(#pf42b2bf9c1)" style="fill: #3b528b"/>
   </g>
   <g id="patch_31">
    <path d="M 87.848308 119.215 
L 89.831729 119.215 
L 89.831729 119.215 
L 87.848308 119.215 
z
" clip-path="url(#pf42b2bf9c1)" style="fill: #3b528b"/>
   </g>
   <g id="patch_32">
    <path d="M 89.831729 119.215 
L 91.815151 119.215 
L 91.815151 119.215 
L 89.831729 119.215 
z
" clip-path="url(#pf42b2bf9c1)" style="fill: #3b528b"/>
   </g>
   <g id="patch_33">
    <path d="M 91.815151 119.215 
L 93.798573 119.215 
L 93.798573 118.917596 
L 91.815151 118.917596 
z
" clip-path="url(#pf42b2bf9c1)" style="fill: #3b528b"/>
   </g>
   <g id="patch_34">
    <path d="M 93.798573 119.215 
L 95.781995 119.215 
L 95.781995 119.215 
L 93.798573 119.215 
z
" clip-path="url(#pf42b2bf9c1)" style="fill: #3b528b"/>
   </g>
   <g id="patch_35">
    <path d="M 95.781995 119.215 
L 97.765416 119.215 
L 97.765416 119.215 
L 95.781995 119.215 
z
" clip-path="url(#pf42b2bf9c1)" style="fill: #3b528b"/>
   </g>
   <g id="patch_36">
    <path d="M 97.765416 119.215 
L 99.748838 119.215 
L 99.748838 118.917596 
L 97.765416 118.917596 
z
" clip-path="url(#pf42b2bf9c1)" style="fill: #3b528b"/>
   </g>
   <g id="patch_37">
    <path d="M 99.748838 119.215 
L 101.73226 119.215 
L 101.73226 119.215 
L 99.748838 119.215 
z
" clip-path="url(#pf42b2bf9c1)" style="fill: #3b528b"/>
   </g>
   <g id="patch_38">
    <path d="M 101.73226 119.215 
L 103.715681 119.215 
L 103.715681 119.215 
L 101.73226 119.215 
z
" clip-path="url(#pf42b2bf9c1)" style="fill: #3b528b"/>
   </g>
   <g id="patch_39">
    <path d="M 103.715681 119.215 
L 105.699103 119.215 
L 105.699103 118.917596 
L 103.715681 118.917596 
z
" clip-path="url(#pf42b2bf9c1)" style="fill: #3b528b"/>
   </g>
   <g id="patch_40">
    <path d="M 105.699103 119.215 
L 107.682525 119.215 
L 107.682525 119.215 
L 105.699103 119.215 
z
" clip-path="url(#pf42b2bf9c1)" style="fill: #3b528b"/>
   </g>
   <g id="patch_41">
    <path d="M 107.682525 119.215 
L 109.665946 119.215 
L 109.665946 118.917596 
L 107.682525 118.917596 
z
" clip-path="url(#pf42b2bf9c1)" style="fill: #3b528b"/>
   </g>
   <g id="patch_42">
    <path d="M 109.665946 119.215 
L 111.649368 119.215 
L 111.649368 119.215 
L 109.665946 119.215 
z
" clip-path="url(#pf42b2bf9c1)" style="fill: #3b528b"/>
   </g>
   <g id="patch_43">
    <path d="M 111.649368 119.215 
L 113.63279 119.215 
L 113.63279 119.215 
L 111.649368 119.215 
z
" clip-path="url(#pf42b2bf9c1)" style="fill: #3b528b"/>
   </g>
   <g id="patch_44">
    <path d="M 113.63279 119.215 
L 115.616212 119.215 
L 115.616212 119.215 
L 113.63279 119.215 
z
" clip-path="url(#pf42b2bf9c1)" style="fill: #3b528b"/>
   </g>
   <g id="patch_45">
    <path d="M 115.616212 119.215 
L 117.599633 119.215 
L 117.599633 118.917596 
L 115.616212 118.917596 
z
" clip-path="url(#pf42b2bf9c1)" style="fill: #3b528b"/>
   </g>
   <g id="patch_46">
    <path d="M 117.599633 119.215 
L 119.583055 119.215 
L 119.583055 119.215 
L 117.599633 119.215 
z
" clip-path="url(#pf42b2bf9c1)" style="fill: #3b528b"/>
   </g>
   <g id="patch_47">
    <path d="M 119.583055 119.215 
L 121.566477 119.215 
L 121.566477 118.322789 
L 119.583055 118.322789 
z
" clip-path="url(#pf42b2bf9c1)" style="fill: #3b528b"/>
   </g>
   <g id="patch_48">
    <path d="M 121.566477 119.215 
L 123.549898 119.215 
L 123.549898 119.215 
L 121.566477 119.215 
z
" clip-path="url(#pf42b2bf9c1)" style="fill: #3b528b"/>
   </g>
   <g id="patch_49">
    <path d="M 123.549898 119.215 
L 125.53332 119.215 
L 125.53332 118.917596 
L 123.549898 118.917596 
z
" clip-path="url(#pf42b2bf9c1)" style="fill: #3b528b"/>
   </g>
   <g id="patch_50">
    <path d="M 125.53332 119.215 
L 127.516742 119.215 
L 127.516742 119.215 
L 125.53332 119.215 
z
" clip-path="url(#pf42b2bf9c1)" style="fill: #3b528b"/>
   </g>
   <g id="patch_51">
    <path d="M 127.516742 119.215 
L 129.500164 119.215 
L 129.500164 118.322789 
L 127.516742 118.322789 
z
" clip-path="url(#pf42b2bf9c1)" style="fill: #3b528b"/>
   </g>
   <g id="patch_52">
    <path d="M 129.500164 119.215 
L 131.483585 119.215 
L 131.483585 118.917596 
L 129.500164 118.917596 
z
" clip-path="url(#pf42b2bf9c1)" style="fill: #3b528b"/>
   </g>
   <g id="patch_53">
    <path d="M 131.483585 119.215 
L 133.467007 119.215 
L 133.467007 118.917596 
L 131.483585 118.917596 
z
" clip-path="url(#pf42b2bf9c1)" style="fill: #3b528b"/>
   </g>
   <g id="patch_54">
    <path d="M 133.467007 119.215 
L 135.450429 119.215 
L 135.450429 118.917596 
L 133.467007 118.917596 
z
" clip-path="url(#pf42b2bf9c1)" style="fill: #3b528b"/>
   </g>
   <g id="patch_55">
    <path d="M 135.450429 119.215 
L 137.43385 119.215 
L 137.43385 119.215 
L 135.450429 119.215 
z
" clip-path="url(#pf42b2bf9c1)" style="fill: #3b528b"/>
   </g>
   <g id="patch_56">
    <path d="M 137.43385 119.215 
L 139.417272 119.215 
L 139.417272 119.215 
L 137.43385 119.215 
z
" clip-path="url(#pf42b2bf9c1)" style="fill: #3b528b"/>
   </g>
   <g id="patch_57">
    <path d="M 139.417272 119.215 
L 141.400694 119.215 
L 141.400694 119.215 
L 139.417272 119.215 
z
" clip-path="url(#pf42b2bf9c1)" style="fill: #3b528b"/>
   </g>
   <g id="patch_58">
    <path d="M 141.400694 119.215 
L 143.384115 119.215 
L 143.384115 118.917596 
L 141.400694 118.917596 
z
" clip-path="url(#pf42b2bf9c1)" style="fill: #3b528b"/>
   </g>
   <g id="patch_59">
    <path d="M 143.384115 119.215 
L 145.367537 119.215 
L 145.367537 118.917596 
L 143.384115 118.917596 
z
" clip-path="url(#pf42b2bf9c1)" style="fill: #3b528b"/>
   </g>
   <g id="patch_60">
    <path d="M 145.367537 119.215 
L 147.350959 119.215 
L 147.350959 117.430578 
L 145.367537 117.430578 
z
" clip-path="url(#pf42b2bf9c1)" style="fill: #3b528b"/>
   </g>
   <g id="patch_61">
    <path d="M 147.350959 119.215 
L 149.334381 119.215 
L 149.334381 118.917596 
L 147.350959 118.917596 
z
" clip-path="url(#pf42b2bf9c1)" style="fill: #3b528b"/>
   </g>
   <g id="patch_62">
    <path d="M 149.334381 119.215 
L 151.317802 119.215 
L 151.317802 118.917596 
L 149.334381 118.917596 
z
" clip-path="url(#pf42b2bf9c1)" style="fill: #3b528b"/>
   </g>
   <g id="patch_63">
    <path d="M 151.317802 119.215 
L 153.301224 119.215 
L 153.301224 117.430578 
L 151.317802 117.430578 
z
" clip-path="url(#pf42b2bf9c1)" style="fill: #3b528b"/>
   </g>
   <g id="patch_64">
    <path d="M 153.301224 119.215 
L 155.284646 119.215 
L 155.284646 117.727981 
L 153.301224 117.727981 
z
" clip-path="url(#pf42b2bf9c1)" style="fill: #3b528b"/>
   </g>
   <g id="patch_65">
    <path d="M 155.284646 119.215 
L 157.268067 119.215 
L 157.268067 116.83577 
L 155.284646 116.83577 
z
" clip-path="url(#pf42b2bf9c1)" style="fill: #3b528b"/>
   </g>
   <g id="patch_66">
    <path d="M 157.268067 119.215 
L 159.251489 119.215 
L 159.251489 117.727981 
L 157.268067 117.727981 
z
" clip-path="url(#pf42b2bf9c1)" style="fill: #3b528b"/>
   </g>
   <g id="patch_67">
    <path d="M 159.251489 119.215 
L 161.234911 119.215 
L 161.234911 118.322789 
L 159.251489 118.322789 
z
" clip-path="url(#pf42b2bf9c1)" style="fill: #3b528b"/>
   </g>
   <g id="patch_68">
    <path d="M 161.234911 119.215 
L 163.218333 119.215 
L 163.218333 118.322789 
L 161.234911 118.322789 
z
" clip-path="url(#pf42b2bf9c1)" style="fill: #3b528b"/>
   </g>
   <g id="patch_69">
    <path d="M 163.218333 119.215 
L 165.201754 119.215 
L 165.201754 117.727981 
L 163.218333 117.727981 
z
" clip-path="url(#pf42b2bf9c1)" style="fill: #3b528b"/>
   </g>
   <g id="patch_70">
    <path d="M 165.201754 119.215 
L 167.185176 119.215 
L 167.185176 116.83577 
L 165.201754 116.83577 
z
" clip-path="url(#pf42b2bf9c1)" style="fill: #3b528b"/>
   </g>
   <g id="patch_71">
    <path d="M 167.185176 119.215 
L 169.168598 119.215 
L 169.168598 117.133174 
L 167.185176 117.133174 
z
" clip-path="url(#pf42b2bf9c1)" style="fill: #3b528b"/>
   </g>
   <g id="patch_72">
    <path d="M 169.168598 119.215 
L 171.152019 119.215 
L 171.152019 116.83577 
L 169.168598 116.83577 
z
" clip-path="url(#pf42b2bf9c1)" style="fill: #3b528b"/>
   </g>
   <g id="patch_73">
    <path d="M 171.152019 119.215 
L 173.135441 119.215 
L 173.135441 114.45654 
L 171.152019 114.45654 
z
" clip-path="url(#pf42b2bf9c1)" style="fill: #3b528b"/>
   </g>
   <g id="patch_74">
    <path d="M 173.135441 119.215 
L 175.118863 119.215 
L 175.118863 116.240963 
L 173.135441 116.240963 
z
" clip-path="url(#pf42b2bf9c1)" style="fill: #3b528b"/>
   </g>
   <g id="patch_75">
    <path d="M 175.118863 119.215 
L 177.102284 119.215 
L 177.102284 116.538366 
L 175.118863 116.538366 
z
" clip-path="url(#pf42b2bf9c1)" style="fill: #3b528b"/>
   </g>
   <g id="patch_76">
    <path d="M 177.102284 119.215 
L 179.085706 119.215 
L 179.085706 115.051348 
L 177.102284 115.051348 
z
" clip-path="url(#pf42b2bf9c1)" style="fill: #3b528b"/>
   </g>
   <g id="patch_77">
    <path d="M 179.085706 119.215 
L 181.069128 119.215 
L 181.069128 114.159136 
L 179.085706 114.159136 
z
" clip-path="url(#pf42b2bf9c1)" style="fill: #3b528b"/>
   </g>
   <g id="patch_78">
    <path d="M 181.069128 119.215 
L 183.05255 119.215 
L 183.05255 116.240963 
L 181.069128 116.240963 
z
" clip-path="url(#pf42b2bf9c1)" style="fill: #3b528b"/>
   </g>
   <g id="patch_79">
    <path d="M 183.05255 119.215 
L 185.035971 119.215 
L 185.035971 111.779906 
L 183.05255 111.779906 
z
" clip-path="url(#pf42b2bf9c1)" style="fill: #3b528b"/>
   </g>
   <g id="patch_80">
    <path d="M 185.035971 119.215 
L 187.019393 119.215 
L 187.019393 112.07731 
L 185.035971 112.07731 
z
" clip-path="url(#pf42b2bf9c1)" style="fill: #3b528b"/>
   </g>
   <g id="patch_81">
    <path d="M 187.019393 119.215 
L 189.002815 119.215 
L 189.002815 108.211061 
L 187.019393 108.211061 
z
" clip-path="url(#pf42b2bf9c1)" style="fill: #3b528b"/>
   </g>
   <g id="patch_82">
    <path d="M 189.002815 119.215 
L 190.986236 119.215 
L 190.986236 107.913658 
L 189.002815 107.913658 
z
" clip-path="url(#pf42b2bf9c1)" style="fill: #3b528b"/>
   </g>
   <g id="patch_83">
    <path d="M 190.986236 119.215 
L 192.969658 119.215 
L 192.969658 104.344813 
L 190.986236 104.344813 
z
" clip-path="url(#pf42b2bf9c1)" style="fill: #3b528b"/>
   </g>
   <g id="patch_84">
    <path d="M 192.969658 119.215 
L 194.95308 119.215 
L 194.95308 104.047409 
L 192.969658 104.047409 
z
" clip-path="url(#pf42b2bf9c1)" style="fill: #3b528b"/>
   </g>
   <g id="patch_85">
    <path d="M 194.95308 119.215 
L 196.936502 119.215 
L 196.936502 96.612315 
L 194.95308 96.612315 
z
" clip-path="url(#pf42b2bf9c1)" style="fill: #3b528b"/>
   </g>
   <g id="patch_86">
    <path d="M 196.936502 119.215 
L 198.919923 119.215 
L 198.919923 99.883756 
L 196.936502 99.883756 
z
" clip-path="url(#pf42b2bf9c1)" style="fill: #3b528b"/>
   </g>
   <g id="patch_87">
    <path d="M 198.919923 119.215 
L 200.903345 119.215 
L 200.903345 101.073371 
L 198.919923 101.073371 
z
" clip-path="url(#pf42b2bf9c1)" style="fill: #3b528b"/>
   </g>
   <g id="patch_88">
    <path d="M 200.903345 119.215 
L 202.886767 119.215 
L 202.886767 90.961644 
L 200.903345 90.961644 
z
" clip-path="url(#pf42b2bf9c1)" style="fill: #3b528b"/>
   </g>
   <g id="patch_89">
    <path d="M 202.886767 119.215 
L 204.870188 119.215 
L 204.870188 96.017508 
L 202.886767 96.017508 
z
" clip-path="url(#pf42b2bf9c1)" style="fill: #3b528b"/>
   </g>
   <g id="patch_90">
    <path d="M 204.870188 119.215 
L 206.85361 119.215 
L 206.85361 87.690203 
L 204.870188 87.690203 
z
" clip-path="url(#pf42b2bf9c1)" style="fill: #3b528b"/>
   </g>
   <g id="patch_91">
    <path d="M 206.85361 119.215 
L 208.837032 119.215 
L 208.837032 82.634339 
L 206.85361 82.634339 
z
" clip-path="url(#pf42b2bf9c1)" style="fill: #3b528b"/>
   </g>
   <g id="patch_92">
    <path d="M 208.837032 119.215 
L 210.820453 119.215 
L 210.820453 73.712226 
L 208.837032 73.712226 
z
" clip-path="url(#pf42b2bf9c1)" style="fill: #3b528b"/>
   </g>
   <g id="patch_93">
    <path d="M 210.820453 119.215 
L 212.803875 119.215 
L 212.803875 70.738189 
L 210.820453 70.738189 
z
" clip-path="url(#pf42b2bf9c1)" style="fill: #3b528b"/>
   </g>
   <g id="patch_94">
    <path d="M 212.803875 119.215 
L 214.787297 119.215 
L 214.787297 63.005691 
L 212.803875 63.005691 
z
" clip-path="url(#pf42b2bf9c1)" style="fill: #3b528b"/>
   </g>
   <g id="patch_95">
    <path d="M 214.787297 119.215 
L 216.770719 119.215 
L 216.770719 58.247232 
L 214.787297 58.247232 
z
" clip-path="url(#pf42b2bf9c1)" style="fill: #3b528b"/>
   </g>
   <g id="patch_96">
    <path d="M 216.770719 119.215 
L 218.75414 119.215 
L 218.75414 43.971852 
L 216.770719 43.971852 
z
" clip-path="url(#pf42b2bf9c1)" style="fill: #3b528b"/>
   </g>
   <g id="patch_97">
    <path d="M 218.75414 119.215 
L 220.737562 119.215 
L 220.737562 35.049739 
L 218.75414 35.049739 
z
" clip-path="url(#pf42b2bf9c1)" style="fill: #3b528b"/>
   </g>
   <g id="patch_98">
    <path d="M 220.737562 119.215 
L 222.720984 119.215 
L 222.720984 29.399068 
L 220.737562 29.399068 
z
" clip-path="url(#pf42b2bf9c1)" style="fill: #3b528b"/>
   </g>
   <g id="patch_99">
    <path d="M 222.720984 119.215 
L 224.704405 119.215 
L 224.704405 11.852247 
L 222.720984 11.852247 
z
" clip-path="url(#pf42b2bf9c1)" style="fill: #3b528b"/>
   </g>
   <g id="patch_100">
    <path d="M 224.704405 119.215 
L 226.687827 119.215 
L 226.687827 7.39119 
L 224.704405 7.39119 
z
" clip-path="url(#pf42b2bf9c1)" style="fill: #3b528b"/>
   </g>
   <g id="patch_101">
    <path d="M 226.687827 119.215 
L 228.671249 119.215 
L 228.671249 53.191368 
L 226.687827 53.191368 
z
" clip-path="url(#pf42b2bf9c1)" style="fill: #3b528b"/>
   </g>
   <g id="patch_102">
    <path d="M 228.671249 119.215 
L 230.65467 119.215 
L 230.65467 106.724043 
L 228.671249 106.724043 
z
" clip-path="url(#pf42b2bf9c1)" style="fill: #3b528b"/>
   </g>
   <g id="line2d_21">
    <path d="M 217.290088 119.215 
L 217.290088 1.8 
" clip-path="url(#pf42b2bf9c1)" style="fill: none; stroke: #5ec962; stroke-width: 2; stroke-linecap: square"/>
   </g>
   <g id="patch_103">
    <path d="M 32.3125 119.215 
L 32.3125 1.8 
" style="fill: none; stroke: #000000; stroke-width: 0.8; stroke-linejoin: miter; stroke-linecap: square"/>
   </g>
   <g id="patch_104">
    <path d="M 233.03875 119.215 
L 233.03875 1.8 
" style="fill: none; stroke: #000000; stroke-width: 0.8; stroke-linejoin: miter; stroke-linecap: square"/>
   </g>
   <g id="patch_105">
    <path d="M 32.3125 119.215 
L 233.03875 119.215 
" style="fill: none; stroke: #000000; stroke-width: 0.8; stroke-linejoin: miter; stroke-linecap: square"/>
   </g>
   <g id="patch_106">
    <path d="M 32.3125 1.8 
L 233.03875 1.8 
" style="fill: none; stroke: #000000; stroke-width: 0.8; stroke-linejoin: miter; stroke-linecap: square"/>
   </g>
   <g id="legend_1">
    <g id="patch_107">
     <path d="M 37.9125 19.9425 
L 92.61125 19.9425 
Q 94.21125 19.9425 94.21125 18.3425 
L 94.21125 7.4 
Q 94.21125 5.8 92.61125 5.8 
L 37.9125 5.8 
Q 36.3125 5.8 36.3125 7.4 
L 36.3125 18.3425 
Q 36.3125 19.9425 37.9125 19.9425 
z
" style="fill: #ffffff; opacity: 0.8; stroke: #cccccc; stroke-linejoin: miter"/>
    </g>
    <g id="line2d_22">
     <path d="M 39.5125 12.27875 
L 47.5125 12.27875 
L 55.5125 12.27875 
" style="fill: none; stroke: #5ec962; stroke-width: 2; stroke-linecap: square"/>
    </g>
    <g id="text_13">
     <!-- Median -->
     <g transform="translate(61.9125 15.07875) scale(0.08 -0.08)">
      <defs>
       <path id="DejaVuSans-4d" d="M 628 4666 
L 1569 4666 
L 2759 1491 
L 3956 4666 
L 4897 4666 
L 4897 0 
L 4281 0 
L 4281 4097 
L 3078 897 
L 2444 897 
L 1241 4097 
L 1241 0 
L 628 0 
L 628 4666 
z
" transform="scale(0.015625)"/>
       <path id="DejaVuSans-65" d="M 3597 1894 
L 3597 1613 
L 953 1613 
Q 991 1019 1311 708 
Q 1631 397 2203 397 
Q 2534 397 2845 478 
Q 3156 559 3463 722 
L 3463 178 
Q 3153 47 2828 -22 
Q 2503 -91 2169 -91 
Q 1331 -91 842 396 
Q 353 884 353 1716 
Q 353 2575 817 3079 
Q 1281 3584 2069 3584 
Q 2775 3584 3186 3129 
Q 3597 2675 3597 1894 
z
M 3022 2063 
Q 3016 2534 2758 2815 
Q 2500 3097 2075 3097 
Q 1594 3097 1305 2825 
Q 1016 2553 972 2059 
L 3022 2063 
z
" transform="scale(0.015625)"/>
       <path id="DejaVuSans-64" d="M 2906 2969 
L 2906 4863 
L 3481 4863 
L 3481 0 
L 2906 0 
L 2906 525 
Q 2725 213 2448 61 
Q 2172 -91 1784 -91 
Q 1150 -91 751 415 
Q 353 922 353 1747 
Q 353 2572 751 3078 
Q 1150 3584 1784 3584 
Q 2172 3584 2448 3432 
Q 2725 3281 2906 2969 
z
M 947 1747 
Q 947 1113 1208 752 
Q 1469 391 1925 391 
Q 2381 391 2643 752 
Q 2906 1113 2906 1747 
Q 2906 2381 2643 2742 
Q 2381 3103 1925 3103 
Q 1469 3103 1208 2742 
Q 947 2381 947 1747 
z
" transform="scale(0.015625)"/>
       <path id="DejaVuSans-69" d="M 603 3500 
L 1178 3500 
L 1178 0 
L 603 0 
L 603 3500 
z
M 603 4863 
L 1178 4863 
L 1178 4134 
L 603 4134 
L 603 4863 
z
" transform="scale(0.015625)"/>
       <path id="DejaVuSans-61" d="M 2194 1759 
Q 1497 1759 1228 1600 
Q 959 1441 959 1056 
Q 959 750 1161 570 
Q 1363 391 1709 391 
Q 2188 391 2477 730 
Q 2766 1069 2766 1631 
L 2766 1759 
L 2194 1759 
z
M 3341 1997 
L 3341 0 
L 2766 0 
L 2766 531 
Q 2569 213 2275 61 
Q 1981 -91 1556 -91 
Q 1019 -91 701 211 
Q 384 513 384 1019 
Q 384 1609 779 1909 
Q 1175 2209 1959 2209 
L 2766 2209 
L 2766 2266 
Q 2766 2663 2505 2880 
Q 2244 3097 1772 3097 
Q 1472 3097 1187 3025 
Q 903 2953 641 2809 
L 641 3341 
Q 956 3463 1253 3523 
Q 1550 3584 1831 3584 
Q 2591 3584 2966 3190 
Q 3341 2797 3341 1997 
z
" transform="scale(0.015625)"/>
      </defs>
      <use xlink:href="#DejaVuSans-4d"/>
      <use xlink:href="#DejaVuSans-65" x="86.279297"/>
      <use xlink:href="#DejaVuSans-64" x="147.802734"/>
      <use xlink:href="#DejaVuSans-69" x="211.279297"/>
      <use xlink:href="#DejaVuSans-61" x="239.0625"/>
      <use xlink:href="#DejaVuSans-6e" x="300.341797"/>
     </g>
    </g>
   </g>
  </g>
 </g>
 <defs>
  <clipPath id="pf42b2bf9c1">
   <rect x="32.3125" y="1.8" width="200.72625" height="117.415"/>
  </clipPath>
 </defs>
</svg>
