<?xml version="1.0" encoding="utf-8" standalone="no"?>
<!DOCTYPE svg PUBLIC "-//W3C//DTD SVG 1.1//EN"
  "http://www.w3.org/Graphics/SVG/1.1/DTD/svg11.dtd">
<svg xmlns:xlink="http://www.w3.org/1999/xlink" width="241.2pt" height="144pt" viewBox="0 0 241.2 144" xmlns="http://www.w3.org/2000/svg" version="1.1">
 <metadata>
  <rdf:RDF xmlns:dc="http://purl.org/dc/elements/1.1/" xmlns:cc="http://creativecommons.org/ns#" xmlns:rdf="http://www.w3.org/1999/02/22-rdf-syntax-ns#">
   <cc:Work>
    <dc:type rdf:resource="http://purl.org/dc/dcmitype/StillImage"/>
    <dc:date>2024-01-14T19:21:36.225322</dc:date>
    <dc:format>image/svg+xml</dc:format>
    <dc:creator>
     <cc:Agent>
      <dc:title>Matplotlib v3.8.2, https://matplotlib.org/</dc:title>
     </cc:Agent>
    </dc:creator>
   </cc:Work>
  </rdf:RDF>
 </metadata>
 <defs>
  <style type="text/css">*{stroke-linejoin: round; stroke-linecap: butt}</style>
 </defs>
 <g id="figure_1">
  <g id="patch_1">
   <path d="M 0 144 
L 241.2 144 
L 241.2 0 
L 0 0 
z
" style="fill: #ffffff"/>
  </g>
  <g id="axes_1">
   <g id="patch_2">
    <path d="M 37.4025 119.215 
L 230.509375 119.215 
L 230.509375 1.8 
L 37.4025 1.8 
z
" style="fill: #ffffff"/>
   </g>
   <g id="matplotlib.axis_1">
    <g id="xtick_1">
     <g id="line2d_1">
      <defs>
       <path id="m7983546b4d" d="M 0 0 
L 0 -3.5 
" style="stroke: #000000; stroke-width: 0.8"/>
      </defs>
      <g>
       <use xlink:href="#m7983546b4d" x="37.4025" y="119.215" style="stroke: #000000; stroke-width: 0.8"/>
      </g>
     </g>
     <g id="line2d_2">
      <defs>
       <path id="m9503da8ce7" d="M 0 0 
L 0 3.5 
" style="stroke: #000000; stroke-width: 0.8"/>
      </defs>
      <g>
       <use xlink:href="#m9503da8ce7" x="37.4025" y="1.8" style="stroke: #000000; stroke-width: 0.8"/>
      </g>
     </g>
     <g id="text_1">
      <!-- −30% -->
      <g transform="translate(25.16 128.79375) scale(0.08 -0.08)">
       <defs>
        <path id="DejaVuSans-2212" d="M 678 2272 
L 4684 2272 
L 4684 1741 
L 678 1741 
L 678 2272 
z
" transform="scale(0.015625)"/>
        <path id="DejaVuSans-33" d="M 2597 2516 
Q 3050 2419 3304 2112 
Q 3559 1806 3559 1356 
Q 3559 666 3084 287 
Q 2609 -91 1734 -91 
Q 1441 -91 1130 -33 
Q 819 25 488 141 
L 488 750 
Q 750 597 1062 519 
Q 1375 441 1716 441 
Q 2309 441 2620 675 
Q 2931 909 2931 1356 
Q 2931 1769 2642 2001 
Q 2353 2234 1838 2234 
L 1294 2234 
L 1294 2753 
L 1863 2753 
Q 2328 2753 2575 2939 
Q 2822 3125 2822 3475 
Q 2822 3834 2567 4026 
Q 2313 4219 1838 4219 
Q 1578 4219 1281 4162 
Q 984 4106 628 3988 
L 628 4550 
Q 988 4650 1302 4700 
Q 1616 4750 1894 4750 
Q 2613 4750 3031 4423 
Q 3450 4097 3450 3541 
Q 3450 3153 3228 2886 
Q 3006 2619 2597 2516 
z
" transform="scale(0.015625)"/>
        <path id="DejaVuSans-30" d="M 2034 4250 
Q 1547 4250 1301 3770 
Q 1056 3291 1056 2328 
Q 1056 1369 1301 889 
Q 1547 409 2034 409 
Q 2525 409 2770 889 
Q 3016 1369 3016 2328 
Q 3016 3291 2770 3770 
Q 2525 4250 2034 4250 
z
M 2034 4750 
Q 2819 4750 3233 4129 
Q 3647 3509 3647 2328 
Q 3647 1150 3233 529 
Q 2819 -91 2034 -91 
Q 1250 -91 836 529 
Q 422 1150 422 2328 
Q 422 3509 836 4129 
Q 1250 4750 2034 4750 
z
" transform="scale(0.015625)"/>
        <path id="DejaVuSans-25" d="M 4653 2053 
Q 4381 2053 4226 1822 
Q 4072 1591 4072 1178 
Q 4072 772 4226 539 
Q 4381 306 4653 306 
Q 4919 306 5073 539 
Q 5228 772 5228 1178 
Q 5228 1588 5073 1820 
Q 4919 2053 4653 2053 
z
M 4653 2450 
Q 5147 2450 5437 2106 
Q 5728 1763 5728 1178 
Q 5728 594 5436 251 
Q 5144 -91 4653 -91 
Q 4153 -91 3862 251 
Q 3572 594 3572 1178 
Q 3572 1766 3864 2108 
Q 4156 2450 4653 2450 
z
M 1428 4353 
Q 1159 4353 1004 4120 
Q 850 3888 850 3481 
Q 850 3069 1003 2837 
Q 1156 2606 1428 2606 
Q 1700 2606 1854 2837 
Q 2009 3069 2009 3481 
Q 2009 3884 1853 4118 
Q 1697 4353 1428 4353 
z
M 4250 4750 
L 4750 4750 
L 1831 -91 
L 1331 -91 
L 4250 4750 
z
M 1428 4750 
Q 1922 4750 2215 4408 
Q 2509 4066 2509 3481 
Q 2509 2891 2217 2550 
Q 1925 2209 1428 2209 
Q 931 2209 642 2551 
Q 353 2894 353 3481 
Q 353 4063 643 4406 
Q 934 4750 1428 4750 
z
" transform="scale(0.015625)"/>
       </defs>
       <use xlink:href="#DejaVuSans-2212"/>
       <use xlink:href="#DejaVuSans-33" x="83.789062"/>
       <use xlink:href="#DejaVuSans-30" x="147.412109"/>
       <use xlink:href="#DejaVuSans-25" x="211.035156"/>
      </g>
     </g>
    </g>
    <g id="xtick_2">
     <g id="line2d_3">
      <g>
       <use xlink:href="#m7983546b4d" x="69.586979" y="119.215" style="stroke: #000000; stroke-width: 0.8"/>
      </g>
     </g>
     <g id="line2d_4">
      <g>
       <use xlink:href="#m9503da8ce7" x="69.586979" y="1.8" style="stroke: #000000; stroke-width: 0.8"/>
      </g>
     </g>
     <g id="text_2">
      <!-- −20% -->
      <g transform="translate(57.344479 128.79375) scale(0.08 -0.08)">
       <defs>
        <path id="DejaVuSans-32" d="M 1228 531 
L 3431 531 
L 3431 0 
L 469 0 
L 469 531 
Q 828 903 1448 1529 
Q 2069 2156 2228 2338 
Q 2531 2678 2651 2914 
Q 2772 3150 2772 3378 
Q 2772 3750 2511 3984 
Q 2250 4219 1831 4219 
Q 1534 4219 1204 4116 
Q 875 4013 500 3803 
L 500 4441 
Q 881 4594 1212 4672 
Q 1544 4750 1819 4750 
Q 2544 4750 2975 4387 
Q 3406 4025 3406 3419 
Q 3406 3131 3298 2873 
Q 3191 2616 2906 2266 
Q 2828 2175 2409 1742 
Q 1991 1309 1228 531 
z
" transform="scale(0.015625)"/>
       </defs>
       <use xlink:href="#DejaVuSans-2212"/>
       <use xlink:href="#DejaVuSans-32" x="83.789062"/>
       <use xlink:href="#DejaVuSans-30" x="147.412109"/>
       <use xlink:href="#DejaVuSans-25" x="211.035156"/>
      </g>
     </g>
    </g>
    <g id="xtick_3">
     <g id="line2d_5">
      <g>
       <use xlink:href="#m7983546b4d" x="101.771458" y="119.215" style="stroke: #000000; stroke-width: 0.8"/>
      </g>
     </g>
     <g id="line2d_6">
      <g>
       <use xlink:href="#m9503da8ce7" x="101.771458" y="1.8" style="stroke: #000000; stroke-width: 0.8"/>
      </g>
     </g>
     <g id="text_3">
      <!-- −10% -->
      <g transform="translate(89.528958 128.79375) scale(0.08 -0.08)">
       <defs>
        <path id="DejaVuSans-31" d="M 794 531 
L 1825 531 
L 1825 4091 
L 703 3866 
L 703 4441 
L 1819 4666 
L 2450 4666 
L 2450 531 
L 3481 531 
L 3481 0 
L 794 0 
L 794 531 
z
" transform="scale(0.015625)"/>
       </defs>
       <use xlink:href="#DejaVuSans-2212"/>
       <use xlink:href="#DejaVuSans-31" x="83.789062"/>
       <use xlink:href="#DejaVuSans-30" x="147.412109"/>
       <use xlink:href="#DejaVuSans-25" x="211.035156"/>
      </g>
     </g>
    </g>
    <g id="xtick_4">
     <g id="line2d_7">
      <g>
       <use xlink:href="#m7983546b4d" x="133.955938" y="119.215" style="stroke: #000000; stroke-width: 0.8"/>
      </g>
     </g>
     <g id="line2d_8">
      <g>
       <use xlink:href="#m9503da8ce7" x="133.955938" y="1.8" style="stroke: #000000; stroke-width: 0.8"/>
      </g>
     </g>
     <g id="text_4">
      <!-- 0% -->
      <g transform="translate(127.610313 128.79375) scale(0.08 -0.08)">
       <use xlink:href="#DejaVuSans-30"/>
       <use xlink:href="#DejaVuSans-25" x="63.623047"/>
      </g>
     </g>
    </g>
    <g id="xtick_5">
     <g id="line2d_9">
      <g>
       <use xlink:href="#m7983546b4d" x="166.140417" y="119.215" style="stroke: #000000; stroke-width: 0.8"/>
      </g>
     </g>
     <g id="line2d_10">
      <g>
       <use xlink:href="#m9503da8ce7" x="166.140417" y="1.8" style="stroke: #000000; stroke-width: 0.8"/>
      </g>
     </g>
     <g id="text_5">
      <!-- 10% -->
      <g transform="translate(157.249792 128.79375) scale(0.08 -0.08)">
       <use xlink:href="#DejaVuSans-31"/>
       <use xlink:href="#DejaVuSans-30" x="63.623047"/>
       <use xlink:href="#DejaVuSans-25" x="127.246094"/>
      </g>
     </g>
    </g>
    <g id="xtick_6">
     <g id="line2d_11">
      <g>
       <use xlink:href="#m7983546b4d" x="198.324896" y="119.215" style="stroke: #000000; stroke-width: 0.8"/>
      </g>
     </g>
     <g id="line2d_12">
      <g>
       <use xlink:href="#m9503da8ce7" x="198.324896" y="1.8" style="stroke: #000000; stroke-width: 0.8"/>
      </g>
     </g>
     <g id="text_6">
      <!-- 20% -->
      <g transform="translate(189.434271 128.79375) scale(0.08 -0.08)">
       <use xlink:href="#DejaVuSans-32"/>
       <use xlink:href="#DejaVuSans-30" x="63.623047"/>
       <use xlink:href="#DejaVuSans-25" x="127.246094"/>
      </g>
     </g>
    </g>
    <g id="xtick_7">
     <g id="line2d_13">
      <g>
       <use xlink:href="#m7983546b4d" x="230.509375" y="119.215" style="stroke: #000000; stroke-width: 0.8"/>
      </g>
     </g>
     <g id="line2d_14">
      <g>
       <use xlink:href="#m9503da8ce7" x="230.509375" y="1.8" style="stroke: #000000; stroke-width: 0.8"/>
      </g>
     </g>
     <g id="text_7">
      <!-- 30% -->
      <g transform="translate(221.61875 128.79375) scale(0.08 -0.08)">
       <use xlink:href="#DejaVuSans-33"/>
       <use xlink:href="#DejaVuSans-30" x="63.623047"/>
       <use xlink:href="#DejaVuSans-25" x="127.246094"/>
      </g>
     </g>
    </g>
    <g id="text_8">
     <!-- Size deviation -->
     <g transform="translate(105.880938 140.53625) scale(0.08 -0.08)">
      <defs>
       <path id="DejaVuSans-53" d="M 3425 4513 
L 3425 3897 
Q 3066 4069 2747 4153 
Q 2428 4238 2131 4238 
Q 1616 4238 1336 4038 
Q 1056 3838 1056 3469 
Q 1056 3159 1242 3001 
Q 1428 2844 1947 2747 
L 2328 2669 
Q 3034 2534 3370 2195 
Q 3706 1856 3706 1288 
Q 3706 609 3251 259 
Q 2797 -91 1919 -91 
Q 1588 -91 1214 -16 
Q 841 59 441 206 
L 441 856 
Q 825 641 1194 531 
Q 1563 422 1919 422 
Q 2459 422 2753 634 
Q 3047 847 3047 1241 
Q 3047 1584 2836 1778 
Q 2625 1972 2144 2069 
L 1759 2144 
Q 1053 2284 737 2584 
Q 422 2884 422 3419 
Q 422 4038 858 4394 
Q 1294 4750 2059 4750 
Q 2388 4750 2728 4690 
Q 3069 4631 3425 4513 
z
" transform="scale(0.015625)"/>
       <path id="DejaVuSans-69" d="M 603 3500 
L 1178 3500 
L 1178 0 
L 603 0 
L 603 3500 
z
M 603 4863 
L 1178 4863 
L 1178 4134 
L 603 4134 
L 603 4863 
z
" transform="scale(0.015625)"/>
       <path id="DejaVuSans-7a" d="M 353 3500 
L 3084 3500 
L 3084 2975 
L 922 459 
L 3084 459 
L 3084 0 
L 275 0 
L 275 525 
L 2438 3041 
L 353 3041 
L 353 3500 
z
" transform="scale(0.015625)"/>
       <path id="DejaVuSans-65" d="M 3597 1894 
L 3597 1613 
L 953 1613 
Q 991 1019 1311 708 
Q 1631 397 2203 397 
Q 2534 397 2845 478 
Q 3156 559 3463 722 
L 3463 178 
Q 3153 47 2828 -22 
Q 2503 -91 2169 -91 
Q 1331 -91 842 396 
Q 353 884 353 1716 
Q 353 2575 817 3079 
Q 1281 3584 2069 3584 
Q 2775 3584 3186 3129 
Q 3597 2675 3597 1894 
z
M 3022 2063 
Q 3016 2534 2758 2815 
Q 2500 3097 2075 3097 
Q 1594 3097 1305 2825 
Q 1016 2553 972 2059 
L 3022 2063 
z
" transform="scale(0.015625)"/>
       <path id="DejaVuSans-20" transform="scale(0.015625)"/>
       <path id="DejaVuSans-64" d="M 2906 2969 
L 2906 4863 
L 3481 4863 
L 3481 0 
L 2906 0 
L 2906 525 
Q 2725 213 2448 61 
Q 2172 -91 1784 -91 
Q 1150 -91 751 415 
Q 353 922 353 1747 
Q 353 2572 751 3078 
Q 1150 3584 1784 3584 
Q 2172 3584 2448 3432 
Q 2725 3281 2906 2969 
z
M 947 1747 
Q 947 1113 1208 752 
Q 1469 391 1925 391 
Q 2381 391 2643 752 
Q 2906 1113 2906 1747 
Q 2906 2381 2643 2742 
Q 2381 3103 1925 3103 
Q 1469 3103 1208 2742 
Q 947 2381 947 1747 
z
" transform="scale(0.015625)"/>
       <path id="DejaVuSans-76" d="M 191 3500 
L 800 3500 
L 1894 563 
L 2988 3500 
L 3597 3500 
L 2284 0 
L 1503 0 
L 191 3500 
z
" transform="scale(0.015625)"/>
       <path id="DejaVuSans-61" d="M 2194 1759 
Q 1497 1759 1228 1600 
Q 959 1441 959 1056 
Q 959 750 1161 570 
Q 1363 391 1709 391 
Q 2188 391 2477 730 
Q 2766 1069 2766 1631 
L 2766 1759 
L 2194 1759 
z
M 3341 1997 
L 3341 0 
L 2766 0 
L 2766 531 
Q 2569 213 2275 61 
Q 1981 -91 1556 -91 
Q 1019 -91 701 211 
Q 384 513 384 1019 
Q 384 1609 779 1909 
Q 1175 2209 1959 2209 
L 2766 2209 
L 2766 2266 
Q 2766 2663 2505 2880 
Q 2244 3097 1772 3097 
Q 1472 3097 1187 3025 
Q 903 2953 641 2809 
L 641 3341 
Q 956 3463 1253 3523 
Q 1550 3584 1831 3584 
Q 2591 3584 2966 3190 
Q 3341 2797 3341 1997 
z
" transform="scale(0.015625)"/>
       <path id="DejaVuSans-74" d="M 1172 4494 
L 1172 3500 
L 2356 3500 
L 2356 3053 
L 1172 3053 
L 1172 1153 
Q 1172 725 1289 603 
Q 1406 481 1766 481 
L 2356 481 
L 2356 0 
L 1766 0 
Q 1100 0 847 248 
Q 594 497 594 1153 
L 594 3053 
L 172 3053 
L 172 3500 
L 594 3500 
L 594 4494 
L 1172 4494 
z
" transform="scale(0.015625)"/>
       <path id="DejaVuSans-6f" d="M 1959 3097 
Q 1497 3097 1228 2736 
Q 959 2375 959 1747 
Q 959 1119 1226 758 
Q 1494 397 1959 397 
Q 2419 397 2687 759 
Q 2956 1122 2956 1747 
Q 2956 2369 2687 2733 
Q 2419 3097 1959 3097 
z
M 1959 3584 
Q 2709 3584 3137 3096 
Q 3566 2609 3566 1747 
Q 3566 888 3137 398 
Q 2709 -91 1959 -91 
Q 1206 -91 779 398 
Q 353 888 353 1747 
Q 353 2609 779 3096 
Q 1206 3584 1959 3584 
z
" transform="scale(0.015625)"/>
       <path id="DejaVuSans-6e" d="M 3513 2113 
L 3513 0 
L 2938 0 
L 2938 2094 
Q 2938 2591 2744 2837 
Q 2550 3084 2163 3084 
Q 1697 3084 1428 2787 
Q 1159 2491 1159 1978 
L 1159 0 
L 581 0 
L 581 3500 
L 1159 3500 
L 1159 2956 
Q 1366 3272 1645 3428 
Q 1925 3584 2291 3584 
Q 2894 3584 3203 3211 
Q 3513 2838 3513 2113 
z
" transform="scale(0.015625)"/>
      </defs>
      <use xlink:href="#DejaVuSans-53"/>
      <use xlink:href="#DejaVuSans-69" x="63.476562"/>
      <use xlink:href="#DejaVuSans-7a" x="91.259766"/>
      <use xlink:href="#DejaVuSans-65" x="143.75"/>
      <use xlink:href="#DejaVuSans-20" x="205.273438"/>
      <use xlink:href="#DejaVuSans-64" x="237.060547"/>
      <use xlink:href="#DejaVuSans-65" x="300.537109"/>
      <use xlink:href="#DejaVuSans-76" x="362.060547"/>
      <use xlink:href="#DejaVuSans-69" x="421.240234"/>
      <use xlink:href="#DejaVuSans-61" x="449.023438"/>
      <use xlink:href="#DejaVuSans-74" x="510.302734"/>
      <use xlink:href="#DejaVuSans-69" x="549.511719"/>
      <use xlink:href="#DejaVuSans-6f" x="577.294922"/>
      <use xlink:href="#DejaVuSans-6e" x="638.476562"/>
     </g>
    </g>
   </g>
   <g id="matplotlib.axis_2">
    <g id="ytick_1">
     <g id="line2d_15">
      <defs>
       <path id="mb9ed36d5ba" d="M 0 0 
L 3.5 0 
" style="stroke: #000000; stroke-width: 0.8"/>
      </defs>
      <g>
       <use xlink:href="#mb9ed36d5ba" x="37.4025" y="119.215" style="stroke: #000000; stroke-width: 0.8"/>
      </g>
     </g>
     <g id="line2d_16">
      <defs>
       <path id="m9d48a3fc05" d="M 0 0 
L -3.5 0 
" style="stroke: #000000; stroke-width: 0.8"/>
      </defs>
      <g>
       <use xlink:href="#m9d48a3fc05" x="230.509375" y="119.215" style="stroke: #000000; stroke-width: 0.8"/>
      </g>
     </g>
     <g id="text_9">
      <!-- 0 -->
      <g transform="translate(28.8125 122.254375) scale(0.08 -0.08)">
       <use xlink:href="#DejaVuSans-30"/>
      </g>
     </g>
    </g>
    <g id="ytick_2">
     <g id="line2d_17">
      <g>
       <use xlink:href="#mb9ed36d5ba" x="37.4025" y="100.164947" style="stroke: #000000; stroke-width: 0.8"/>
      </g>
     </g>
     <g id="line2d_18">
      <g>
       <use xlink:href="#m9d48a3fc05" x="230.509375" y="100.164947" style="stroke: #000000; stroke-width: 0.8"/>
      </g>
     </g>
     <g id="text_10">
      <!-- 200 -->
      <g transform="translate(18.6325 103.204322) scale(0.08 -0.08)">
       <use xlink:href="#DejaVuSans-32"/>
       <use xlink:href="#DejaVuSans-30" x="63.623047"/>
       <use xlink:href="#DejaVuSans-30" x="127.246094"/>
      </g>
     </g>
    </g>
    <g id="ytick_3">
     <g id="line2d_19">
      <g>
       <use xlink:href="#mb9ed36d5ba" x="37.4025" y="81.114895" style="stroke: #000000; stroke-width: 0.8"/>
      </g>
     </g>
     <g id="line2d_20">
      <g>
       <use xlink:href="#m9d48a3fc05" x="230.509375" y="81.114895" style="stroke: #000000; stroke-width: 0.8"/>
      </g>
     </g>
     <g id="text_11">
      <!-- 400 -->
      <g transform="translate(18.6325 84.15427) scale(0.08 -0.08)">
       <defs>
        <path id="DejaVuSans-34" d="M 2419 4116 
L 825 1625 
L 2419 1625 
L 2419 4116 
z
M 2253 4666 
L 3047 4666 
L 3047 1625 
L 3713 1625 
L 3713 1100 
L 3047 1100 
L 3047 0 
L 2419 0 
L 2419 1100 
L 313 1100 
L 313 1709 
L 2253 4666 
z
" transform="scale(0.015625)"/>
       </defs>
       <use xlink:href="#DejaVuSans-34"/>
       <use xlink:href="#DejaVuSans-30" x="63.623047"/>
       <use xlink:href="#DejaVuSans-30" x="127.246094"/>
      </g>
     </g>
    </g>
    <g id="ytick_4">
     <g id="line2d_21">
      <g>
       <use xlink:href="#mb9ed36d5ba" x="37.4025" y="62.064842" style="stroke: #000000; stroke-width: 0.8"/>
      </g>
     </g>
     <g id="line2d_22">
      <g>
       <use xlink:href="#m9d48a3fc05" x="230.509375" y="62.064842" style="stroke: #000000; stroke-width: 0.8"/>
      </g>
     </g>
     <g id="text_12">
      <!-- 600 -->
      <g transform="translate(18.6325 65.104217) scale(0.08 -0.08)">
       <defs>
        <path id="DejaVuSans-36" d="M 2113 2584 
Q 1688 2584 1439 2293 
Q 1191 2003 1191 1497 
Q 1191 994 1439 701 
Q 1688 409 2113 409 
Q 2538 409 2786 701 
Q 3034 994 3034 1497 
Q 3034 2003 2786 2293 
Q 2538 2584 2113 2584 
z
M 3366 4563 
L 3366 3988 
Q 3128 4100 2886 4159 
Q 2644 4219 2406 4219 
Q 1781 4219 1451 3797 
Q 1122 3375 1075 2522 
Q 1259 2794 1537 2939 
Q 1816 3084 2150 3084 
Q 2853 3084 3261 2657 
Q 3669 2231 3669 1497 
Q 3669 778 3244 343 
Q 2819 -91 2113 -91 
Q 1303 -91 875 529 
Q 447 1150 447 2328 
Q 447 3434 972 4092 
Q 1497 4750 2381 4750 
Q 2619 4750 2861 4703 
Q 3103 4656 3366 4563 
z
" transform="scale(0.015625)"/>
       </defs>
       <use xlink:href="#DejaVuSans-36"/>
       <use xlink:href="#DejaVuSans-30" x="63.623047"/>
       <use xlink:href="#DejaVuSans-30" x="127.246094"/>
      </g>
     </g>
    </g>
    <g id="ytick_5">
     <g id="line2d_23">
      <g>
       <use xlink:href="#mb9ed36d5ba" x="37.4025" y="43.014789" style="stroke: #000000; stroke-width: 0.8"/>
      </g>
     </g>
     <g id="line2d_24">
      <g>
       <use xlink:href="#m9d48a3fc05" x="230.509375" y="43.014789" style="stroke: #000000; stroke-width: 0.8"/>
      </g>
     </g>
     <g id="text_13">
      <!-- 800 -->
      <g transform="translate(18.6325 46.054164) scale(0.08 -0.08)">
       <defs>
        <path id="DejaVuSans-38" d="M 2034 2216 
Q 1584 2216 1326 1975 
Q 1069 1734 1069 1313 
Q 1069 891 1326 650 
Q 1584 409 2034 409 
Q 2484 409 2743 651 
Q 3003 894 3003 1313 
Q 3003 1734 2745 1975 
Q 2488 2216 2034 2216 
z
M 1403 2484 
Q 997 2584 770 2862 
Q 544 3141 544 3541 
Q 544 4100 942 4425 
Q 1341 4750 2034 4750 
Q 2731 4750 3128 4425 
Q 3525 4100 3525 3541 
Q 3525 3141 3298 2862 
Q 3072 2584 2669 2484 
Q 3125 2378 3379 2068 
Q 3634 1759 3634 1313 
Q 3634 634 3220 271 
Q 2806 -91 2034 -91 
Q 1263 -91 848 271 
Q 434 634 434 1313 
Q 434 1759 690 2068 
Q 947 2378 1403 2484 
z
M 1172 3481 
Q 1172 3119 1398 2916 
Q 1625 2713 2034 2713 
Q 2441 2713 2670 2916 
Q 2900 3119 2900 3481 
Q 2900 3844 2670 4047 
Q 2441 4250 2034 4250 
Q 1625 4250 1398 4047 
Q 1172 3844 1172 3481 
z
" transform="scale(0.015625)"/>
       </defs>
       <use xlink:href="#DejaVuSans-38"/>
       <use xlink:href="#DejaVuSans-30" x="63.623047"/>
       <use xlink:href="#DejaVuSans-30" x="127.246094"/>
      </g>
     </g>
    </g>
    <g id="ytick_6">
     <g id="line2d_25">
      <g>
       <use xlink:href="#mb9ed36d5ba" x="37.4025" y="23.964736" style="stroke: #000000; stroke-width: 0.8"/>
      </g>
     </g>
     <g id="line2d_26">
      <g>
       <use xlink:href="#m9d48a3fc05" x="230.509375" y="23.964736" style="stroke: #000000; stroke-width: 0.8"/>
      </g>
     </g>
     <g id="text_14">
      <!-- 1000 -->
      <g transform="translate(13.5425 27.004111) scale(0.08 -0.08)">
       <use xlink:href="#DejaVuSans-31"/>
       <use xlink:href="#DejaVuSans-30" x="63.623047"/>
       <use xlink:href="#DejaVuSans-30" x="127.246094"/>
       <use xlink:href="#DejaVuSans-30" x="190.869141"/>
      </g>
     </g>
    </g>
    <g id="ytick_7">
     <g id="line2d_27">
      <g>
       <use xlink:href="#mb9ed36d5ba" x="37.4025" y="4.914684" style="stroke: #000000; stroke-width: 0.8"/>
      </g>
     </g>
     <g id="line2d_28">
      <g>
       <use xlink:href="#m9d48a3fc05" x="230.509375" y="4.914684" style="stroke: #000000; stroke-width: 0.8"/>
      </g>
     </g>
     <g id="text_15">
      <!-- 1200 -->
      <g transform="translate(13.5425 7.954059) scale(0.08 -0.08)">
       <use xlink:href="#DejaVuSans-31"/>
       <use xlink:href="#DejaVuSans-32" x="63.623047"/>
       <use xlink:href="#DejaVuSans-30" x="127.246094"/>
       <use xlink:href="#DejaVuSans-30" x="190.869141"/>
      </g>
     </g>
    </g>
    <g id="text_16">
     <!-- Count -->
     <g transform="translate(7.87875 72.38625) rotate(-90) scale(0.08 -0.08)">
      <defs>
       <path id="DejaVuSans-43" d="M 4122 4306 
L 4122 3641 
Q 3803 3938 3442 4084 
Q 3081 4231 2675 4231 
Q 1875 4231 1450 3742 
Q 1025 3253 1025 2328 
Q 1025 1406 1450 917 
Q 1875 428 2675 428 
Q 3081 428 3442 575 
Q 3803 722 4122 1019 
L 4122 359 
Q 3791 134 3420 21 
Q 3050 -91 2638 -91 
Q 1578 -91 968 557 
Q 359 1206 359 2328 
Q 359 3453 968 4101 
Q 1578 4750 2638 4750 
Q 3056 4750 3426 4639 
Q 3797 4528 4122 4306 
z
" transform="scale(0.015625)"/>
       <path id="DejaVuSans-75" d="M 544 1381 
L 544 3500 
L 1119 3500 
L 1119 1403 
Q 1119 906 1312 657 
Q 1506 409 1894 409 
Q 2359 409 2629 706 
Q 2900 1003 2900 1516 
L 2900 3500 
L 3475 3500 
L 3475 0 
L 2900 0 
L 2900 538 
Q 2691 219 2414 64 
Q 2138 -91 1772 -91 
Q 1169 -91 856 284 
Q 544 659 544 1381 
z
M 1991 3584 
L 1991 3584 
z
" transform="scale(0.015625)"/>
      </defs>
      <use xlink:href="#DejaVuSans-43"/>
      <use xlink:href="#DejaVuSans-6f" x="69.824219"/>
      <use xlink:href="#DejaVuSans-75" x="131.005859"/>
      <use xlink:href="#DejaVuSans-6e" x="194.384766"/>
      <use xlink:href="#DejaVuSans-74" x="257.763672"/>
     </g>
    </g>
   </g>
   <g id="patch_3">
    <path d="M -102.142547 119.215 
L -96.197553 119.215 
L -96.197553 119.11975 
L -102.142547 119.11975 
z
" clip-path="url(#p027ab61fb7)" style="fill: #3b528b"/>
   </g>
   <g id="patch_4">
    <path d="M -96.197553 119.215 
L -90.252559 119.215 
L -90.252559 119.215 
L -96.197553 119.215 
z
" clip-path="url(#p027ab61fb7)" style="fill: #3b528b"/>
   </g>
   <g id="patch_5">
    <path d="M -90.252559 119.215 
L -84.307565 119.215 
L -84.307565 119.215 
L -90.252559 119.215 
z
" clip-path="url(#p027ab61fb7)" style="fill: #3b528b"/>
   </g>
   <g id="patch_6">
    <path d="M -84.307565 119.215 
L -78.362571 119.215 
L -78.362571 119.215 
L -84.307565 119.215 
z
" clip-path="url(#p027ab61fb7)" style="fill: #3b528b"/>
   </g>
   <g id="patch_7">
    <path d="M -78.362571 119.215 
L -72.417577 119.215 
L -72.417577 119.11975 
L -78.362571 119.11975 
z
" clip-path="url(#p027ab61fb7)" style="fill: #3b528b"/>
   </g>
   <g id="patch_8">
    <path d="M -72.417577 119.215 
L -66.472583 119.215 
L -66.472583 119.215 
L -72.417577 119.215 
z
" clip-path="url(#p027ab61fb7)" style="fill: #3b528b"/>
   </g>
   <g id="patch_9">
    <path d="M -66.472583 119.215 
L -60.527589 119.215 
L -60.527589 119.215 
L -66.472583 119.215 
z
" clip-path="url(#p027ab61fb7)" style="fill: #3b528b"/>
   </g>
   <g id="patch_10">
    <path d="M -60.527589 119.215 
L -54.582595 119.215 
L -54.582595 119.215 
L -60.527589 119.215 
z
" clip-path="url(#p027ab61fb7)" style="fill: #3b528b"/>
   </g>
   <g id="patch_11">
    <path d="M -54.582595 119.215 
L -48.637601 119.215 
L -48.637601 119.215 
L -54.582595 119.215 
z
" clip-path="url(#p027ab61fb7)" style="fill: #3b528b"/>
   </g>
   <g id="patch_12">
    <path d="M -48.637601 119.215 
L -42.692607 119.215 
L -42.692607 119.215 
L -48.637601 119.215 
z
" clip-path="url(#p027ab61fb7)" style="fill: #3b528b"/>
   </g>
   <g id="patch_13">
    <path d="M -42.692607 119.215 
L -36.747613 119.215 
L -36.747613 119.215 
L -42.692607 119.215 
z
" clip-path="url(#p027ab61fb7)" style="fill: #3b528b"/>
   </g>
   <g id="patch_14">
    <path d="M -36.747613 119.215 
L -30.802619 119.215 
L -30.802619 119.215 
L -36.747613 119.215 
z
" clip-path="url(#p027ab61fb7)" style="fill: #3b528b"/>
   </g>
   <g id="patch_15">
    <path d="M -30.802619 119.215 
L -24.857625 119.215 
L -24.857625 119.215 
L -30.802619 119.215 
z
" clip-path="url(#p027ab61fb7)" style="fill: #3b528b"/>
   </g>
   <g id="patch_16">
    <path d="M -24.857625 119.215 
L -18.912631 119.215 
L -18.912631 119.215 
L -24.857625 119.215 
z
" clip-path="url(#p027ab61fb7)" style="fill: #3b528b"/>
   </g>
   <g id="patch_17">
    <path d="M -18.912631 119.215 
L -12.967637 119.215 
L -12.967637 119.215 
L -18.912631 119.215 
z
" clip-path="url(#p027ab61fb7)" style="fill: #3b528b"/>
   </g>
   <g id="patch_18">
    <path d="M -12.967637 119.215 
L -7.022643 119.215 
L -7.022643 119.215 
L -12.967637 119.215 
z
" clip-path="url(#p027ab61fb7)" style="fill: #3b528b"/>
   </g>
   <g id="patch_19">
    <path d="M -7.022643 119.215 
L -1.077649 119.215 
L -1.077649 119.215 
L -7.022643 119.215 
z
" clip-path="url(#p027ab61fb7)" style="fill: #3b528b"/>
   </g>
   <g id="patch_20">
    <path d="M -1.077649 119.215 
L 4.867345 119.215 
L 4.867345 119.215 
L -1.077649 119.215 
z
" clip-path="url(#p027ab61fb7)" style="fill: #3b528b"/>
   </g>
   <g id="patch_21">
    <path d="M 4.867345 119.215 
L 10.812339 119.215 
L 10.812339 119.215 
L 4.867345 119.215 
z
" clip-path="url(#p027ab61fb7)" style="fill: #3b528b"/>
   </g>
   <g id="patch_22">
    <path d="M 10.812339 119.215 
L 16.757333 119.215 
L 16.757333 119.215 
L 10.812339 119.215 
z
" clip-path="url(#p027ab61fb7)" style="fill: #3b528b"/>
   </g>
   <g id="patch_23">
    <path d="M 16.757333 119.215 
L 22.702327 119.215 
L 22.702327 119.215 
L 16.757333 119.215 
z
" clip-path="url(#p027ab61fb7)" style="fill: #3b528b"/>
   </g>
   <g id="patch_24">
    <path d="M 22.702327 119.215 
L 28.647321 119.215 
L 28.647321 119.215 
L 22.702327 119.215 
z
" clip-path="url(#p027ab61fb7)" style="fill: #3b528b"/>
   </g>
   <g id="patch_25">
    <path d="M 28.647321 119.215 
L 34.592315 119.215 
L 34.592315 119.11975 
L 28.647321 119.11975 
z
" clip-path="url(#p027ab61fb7)" style="fill: #3b528b"/>
   </g>
   <g id="patch_26">
    <path d="M 34.592315 119.215 
L 40.537309 119.215 
L 40.537309 118.929249 
L 34.592315 118.929249 
z
" clip-path="url(#p027ab61fb7)" style="fill: #3b528b"/>
   </g>
   <g id="patch_27">
    <path d="M 40.537309 119.215 
L 46.482303 119.215 
L 46.482303 119.215 
L 40.537309 119.215 
z
" clip-path="url(#p027ab61fb7)" style="fill: #3b528b"/>
   </g>
   <g id="patch_28">
    <path d="M 46.482303 119.215 
L 52.427297 119.215 
L 52.427297 119.11975 
L 46.482303 119.11975 
z
" clip-path="url(#p027ab61fb7)" style="fill: #3b528b"/>
   </g>
   <g id="patch_29">
    <path d="M 52.427297 119.215 
L 58.372291 119.215 
L 58.372291 119.215 
L 52.427297 119.215 
z
" clip-path="url(#p027ab61fb7)" style="fill: #3b528b"/>
   </g>
   <g id="patch_30">
    <path d="M 58.372291 119.215 
L 64.317285 119.215 
L 64.317285 119.215 
L 58.372291 119.215 
z
" clip-path="url(#p027ab61fb7)" style="fill: #3b528b"/>
   </g>
   <g id="patch_31">
    <path d="M 64.317285 119.215 
L 70.262279 119.215 
L 70.262279 119.024499 
L 64.317285 119.024499 
z
" clip-path="url(#p027ab61fb7)" style="fill: #3b528b"/>
   </g>
   <g id="patch_32">
    <path d="M 70.262279 119.215 
L 76.207273 119.215 
L 76.207273 119.024499 
L 70.262279 119.024499 
z
" clip-path="url(#p027ab61fb7)" style="fill: #3b528b"/>
   </g>
   <g id="patch_33">
    <path d="M 76.207273 119.215 
L 82.152267 119.215 
L 82.152267 118.738749 
L 76.207273 118.738749 
z
" clip-path="url(#p027ab61fb7)" style="fill: #3b528b"/>
   </g>
   <g id="patch_34">
    <path d="M 82.152267 119.215 
L 88.097261 119.215 
L 88.097261 118.738749 
L 82.152267 118.738749 
z
" clip-path="url(#p027ab61fb7)" style="fill: #3b528b"/>
   </g>
   <g id="patch_35">
    <path d="M 88.097261 119.215 
L 94.042255 119.215 
L 94.042255 118.548248 
L 88.097261 118.548248 
z
" clip-path="url(#p027ab61fb7)" style="fill: #3b528b"/>
   </g>
   <g id="patch_36">
    <path d="M 94.042255 119.215 
L 99.987249 119.215 
L 99.987249 118.548248 
L 94.042255 118.548248 
z
" clip-path="url(#p027ab61fb7)" style="fill: #3b528b"/>
   </g>
   <g id="patch_37">
    <path d="M 99.987249 119.215 
L 105.932243 119.215 
L 105.932243 117.214744 
L 99.987249 117.214744 
z
" clip-path="url(#p027ab61fb7)" style="fill: #3b528b"/>
   </g>
   <g id="patch_38">
    <path d="M 105.932243 119.215 
L 111.877237 119.215 
L 111.877237 116.357492 
L 105.932243 116.357492 
z
" clip-path="url(#p027ab61fb7)" style="fill: #3b528b"/>
   </g>
   <g id="patch_39">
    <path d="M 111.877237 119.215 
L 117.822231 119.215 
L 117.822231 114.166736 
L 111.877237 114.166736 
z
" clip-path="url(#p027ab61fb7)" style="fill: #3b528b"/>
   </g>
   <g id="patch_40">
    <path d="M 117.822231 119.215 
L 123.767225 119.215 
L 123.767225 106.546715 
L 117.822231 106.546715 
z
" clip-path="url(#p027ab61fb7)" style="fill: #3b528b"/>
   </g>
   <g id="patch_41">
    <path d="M 123.767225 119.215 
L 129.712219 119.215 
L 129.712219 92.068675 
L 123.767225 92.068675 
z
" clip-path="url(#p027ab61fb7)" style="fill: #3b528b"/>
   </g>
   <g id="patch_42">
    <path d="M 129.712219 119.215 
L 135.657213 119.215 
L 135.657213 47.491551 
L 129.712219 47.491551 
z
" clip-path="url(#p027ab61fb7)" style="fill: #3b528b"/>
   </g>
   <g id="patch_43">
    <path d="M 135.657213 119.215 
L 141.602207 119.215 
L 141.602207 7.39119 
L 135.657213 7.39119 
z
" clip-path="url(#p027ab61fb7)" style="fill: #3b528b"/>
   </g>
   <g id="patch_44">
    <path d="M 141.602207 119.215 
L 147.547201 119.215 
L 147.547201 69.494362 
L 141.602207 69.494362 
z
" clip-path="url(#p027ab61fb7)" style="fill: #3b528b"/>
   </g>
   <g id="patch_45">
    <path d="M 147.547201 119.215 
L 153.492195 119.215 
L 153.492195 98.355192 
L 147.547201 98.355192 
z
" clip-path="url(#p027ab61fb7)" style="fill: #3b528b"/>
   </g>
   <g id="patch_46">
    <path d="M 153.492195 119.215 
L 159.437189 119.215 
L 159.437189 107.689718 
L 153.492195 107.689718 
z
" clip-path="url(#p027ab61fb7)" style="fill: #3b528b"/>
   </g>
   <g id="patch_47">
    <path d="M 159.437189 119.215 
L 165.382183 119.215 
L 165.382183 113.880985 
L 159.437189 113.880985 
z
" clip-path="url(#p027ab61fb7)" style="fill: #3b528b"/>
   </g>
   <g id="patch_48">
    <path d="M 165.382183 119.215 
L 171.327177 119.215 
L 171.327177 114.738238 
L 165.382183 114.738238 
z
" clip-path="url(#p027ab61fb7)" style="fill: #3b528b"/>
   </g>
   <g id="patch_49">
    <path d="M 171.327177 119.215 
L 177.272171 119.215 
L 177.272171 116.262242 
L 171.327177 116.262242 
z
" clip-path="url(#p027ab61fb7)" style="fill: #3b528b"/>
   </g>
   <g id="patch_50">
    <path d="M 177.272171 119.215 
L 183.217165 119.215 
L 183.217165 118.262497 
L 177.272171 118.262497 
z
" clip-path="url(#p027ab61fb7)" style="fill: #3b528b"/>
   </g>
   <g id="patch_51">
    <path d="M 183.217165 119.215 
L 189.162159 119.215 
L 189.162159 118.262497 
L 183.217165 118.262497 
z
" clip-path="url(#p027ab61fb7)" style="fill: #3b528b"/>
   </g>
   <g id="patch_52">
    <path d="M 189.162159 119.215 
L 195.107154 119.215 
L 195.107154 118.548248 
L 189.162159 118.548248 
z
" clip-path="url(#p027ab61fb7)" style="fill: #3b528b"/>
   </g>
   <g id="patch_53">
    <path d="M 195.107154 119.215 
L 201.052148 119.215 
L 201.052148 118.929249 
L 195.107154 118.929249 
z
" clip-path="url(#p027ab61fb7)" style="fill: #3b528b"/>
   </g>
   <g id="patch_54">
    <path d="M 201.052148 119.215 
L 206.997142 119.215 
L 206.997142 118.357748 
L 201.052148 118.357748 
z
" clip-path="url(#p027ab61fb7)" style="fill: #3b528b"/>
   </g>
   <g id="patch_55">
    <path d="M 206.997142 119.215 
L 212.942136 119.215 
L 212.942136 119.11975 
L 206.997142 119.11975 
z
" clip-path="url(#p027ab61fb7)" style="fill: #3b528b"/>
   </g>
   <g id="patch_56">
    <path d="M 212.942136 119.215 
L 218.88713 119.215 
L 218.88713 119.11975 
L 212.942136 119.11975 
z
" clip-path="url(#p027ab61fb7)" style="fill: #3b528b"/>
   </g>
   <g id="patch_57">
    <path d="M 218.88713 119.215 
L 224.832124 119.215 
L 224.832124 118.738749 
L 218.88713 118.738749 
z
" clip-path="url(#p027ab61fb7)" style="fill: #3b528b"/>
   </g>
   <g id="patch_58">
    <path d="M 224.832124 119.215 
L 230.777118 119.215 
L 230.777118 118.929249 
L 224.832124 118.929249 
z
" clip-path="url(#p027ab61fb7)" style="fill: #3b528b"/>
   </g>
   <g id="patch_59">
    <path d="M 230.777118 119.215 
L 236.722112 119.215 
L 236.722112 119.024499 
L 230.777118 119.024499 
z
" clip-path="url(#p027ab61fb7)" style="fill: #3b528b"/>
   </g>
   <g id="patch_60">
    <path d="M 236.722112 119.215 
L 242.667106 119.215 
L 242.667106 119.11975 
L 236.722112 119.11975 
z
" clip-path="url(#p027ab61fb7)" style="fill: #3b528b"/>
   </g>
   <g id="patch_61">
    <path d="M 242.667106 119.215 
L 248.6121 119.215 
L 248.6121 119.11975 
L 242.667106 119.11975 
z
" clip-path="url(#p027ab61fb7)" style="fill: #3b528b"/>
   </g>
   <g id="patch_62">
    <path d="M 248.6121 119.215 
L 254.557094 119.215 
L 254.557094 119.215 
L 248.6121 119.215 
z
" clip-path="url(#p027ab61fb7)" style="fill: #3b528b"/>
   </g>
   <g id="patch_63">
    <path d="M 254.557094 119.215 
L 260.502088 119.215 
L 260.502088 119.215 
L 254.557094 119.215 
z
" clip-path="url(#p027ab61fb7)" style="fill: #3b528b"/>
   </g>
   <g id="patch_64">
    <path d="M 260.502088 119.215 
L 266.447082 119.215 
L 266.447082 119.11975 
L 260.502088 119.11975 
z
" clip-path="url(#p027ab61fb7)" style="fill: #3b528b"/>
   </g>
   <g id="patch_65">
    <path d="M 266.447082 119.215 
L 272.392076 119.215 
L 272.392076 119.215 
L 266.447082 119.215 
z
" clip-path="url(#p027ab61fb7)" style="fill: #3b528b"/>
   </g>
   <g id="patch_66">
    <path d="M 272.392076 119.215 
L 278.33707 119.215 
L 278.33707 119.11975 
L 272.392076 119.11975 
z
" clip-path="url(#p027ab61fb7)" style="fill: #3b528b"/>
   </g>
   <g id="patch_67">
    <path d="M 278.33707 119.215 
L 284.282064 119.215 
L 284.282064 119.11975 
L 278.33707 119.11975 
z
" clip-path="url(#p027ab61fb7)" style="fill: #3b528b"/>
   </g>
   <g id="patch_68">
    <path d="M 284.282064 119.215 
L 290.227058 119.215 
L 290.227058 119.11975 
L 284.282064 119.11975 
z
" clip-path="url(#p027ab61fb7)" style="fill: #3b528b"/>
   </g>
   <g id="patch_69">
    <path d="M 290.227058 119.215 
L 296.172052 119.215 
L 296.172052 119.215 
L 290.227058 119.215 
z
" clip-path="url(#p027ab61fb7)" style="fill: #3b528b"/>
   </g>
   <g id="patch_70">
    <path d="M 296.172052 119.215 
L 302.117046 119.215 
L 302.117046 119.11975 
L 296.172052 119.11975 
z
" clip-path="url(#p027ab61fb7)" style="fill: #3b528b"/>
   </g>
   <g id="patch_71">
    <path d="M 302.117046 119.215 
L 308.06204 119.215 
L 308.06204 119.215 
L 302.117046 119.215 
z
" clip-path="url(#p027ab61fb7)" style="fill: #3b528b"/>
   </g>
   <g id="patch_72">
    <path d="M 308.06204 119.215 
L 314.007034 119.215 
L 314.007034 119.11975 
L 308.06204 119.11975 
z
" clip-path="url(#p027ab61fb7)" style="fill: #3b528b"/>
   </g>
   <g id="patch_73">
    <path d="M 314.007034 119.215 
L 319.952028 119.215 
L 319.952028 119.215 
L 314.007034 119.215 
z
" clip-path="url(#p027ab61fb7)" style="fill: #3b528b"/>
   </g>
   <g id="patch_74">
    <path d="M 319.952028 119.215 
L 325.897022 119.215 
L 325.897022 119.11975 
L 319.952028 119.11975 
z
" clip-path="url(#p027ab61fb7)" style="fill: #3b528b"/>
   </g>
   <g id="patch_75">
    <path d="M 325.897022 119.215 
L 331.842016 119.215 
L 331.842016 119.215 
L 325.897022 119.215 
z
" clip-path="url(#p027ab61fb7)" style="fill: #3b528b"/>
   </g>
   <g id="patch_76">
    <path d="M 331.842016 119.215 
L 337.78701 119.215 
L 337.78701 119.215 
L 331.842016 119.215 
z
" clip-path="url(#p027ab61fb7)" style="fill: #3b528b"/>
   </g>
   <g id="patch_77">
    <path d="M 337.78701 119.215 
L 343.732004 119.215 
L 343.732004 119.215 
L 337.78701 119.215 
z
" clip-path="url(#p027ab61fb7)" style="fill: #3b528b"/>
   </g>
   <g id="patch_78">
    <path d="M 343.732004 119.215 
L 349.676998 119.215 
L 349.676998 119.215 
L 343.732004 119.215 
z
" clip-path="url(#p027ab61fb7)" style="fill: #3b528b"/>
   </g>
   <g id="patch_79">
    <path d="M 349.676998 119.215 
L 355.621992 119.215 
L 355.621992 119.215 
L 349.676998 119.215 
z
" clip-path="url(#p027ab61fb7)" style="fill: #3b528b"/>
   </g>
   <g id="patch_80">
    <path d="M 355.621992 119.215 
L 361.566986 119.215 
L 361.566986 119.215 
L 355.621992 119.215 
z
" clip-path="url(#p027ab61fb7)" style="fill: #3b528b"/>
   </g>
   <g id="patch_81">
    <path d="M 361.566986 119.215 
L 367.51198 119.215 
L 367.51198 119.215 
L 361.566986 119.215 
z
" clip-path="url(#p027ab61fb7)" style="fill: #3b528b"/>
   </g>
   <g id="patch_82">
    <path d="M 367.51198 119.215 
L 373.456974 119.215 
L 373.456974 119.215 
L 367.51198 119.215 
z
" clip-path="url(#p027ab61fb7)" style="fill: #3b528b"/>
   </g>
   <g id="patch_83">
    <path d="M 373.456974 119.215 
L 379.401968 119.215 
L 379.401968 119.215 
L 373.456974 119.215 
z
" clip-path="url(#p027ab61fb7)" style="fill: #3b528b"/>
   </g>
   <g id="patch_84">
    <path d="M 379.401968 119.215 
L 385.346962 119.215 
L 385.346962 119.215 
L 379.401968 119.215 
z
" clip-path="url(#p027ab61fb7)" style="fill: #3b528b"/>
   </g>
   <g id="patch_85">
    <path d="M 385.346962 119.215 
L 391.291956 119.215 
L 391.291956 119.215 
L 385.346962 119.215 
z
" clip-path="url(#p027ab61fb7)" style="fill: #3b528b"/>
   </g>
   <g id="patch_86">
    <path d="M 391.291956 119.215 
L 397.23695 119.215 
L 397.23695 119.215 
L 391.291956 119.215 
z
" clip-path="url(#p027ab61fb7)" style="fill: #3b528b"/>
   </g>
   <g id="patch_87">
    <path d="M 397.23695 119.215 
L 403.181944 119.215 
L 403.181944 119.215 
L 397.23695 119.215 
z
" clip-path="url(#p027ab61fb7)" style="fill: #3b528b"/>
   </g>
   <g id="patch_88">
    <path d="M 403.181944 119.215 
L 409.126938 119.215 
L 409.126938 119.215 
L 403.181944 119.215 
z
" clip-path="url(#p027ab61fb7)" style="fill: #3b528b"/>
   </g>
   <g id="patch_89">
    <path d="M 409.126938 119.215 
L 415.071932 119.215 
L 415.071932 119.215 
L 409.126938 119.215 
z
" clip-path="url(#p027ab61fb7)" style="fill: #3b528b"/>
   </g>
   <g id="patch_90">
    <path d="M 415.071932 119.215 
L 421.016926 119.215 
L 421.016926 119.215 
L 415.071932 119.215 
z
" clip-path="url(#p027ab61fb7)" style="fill: #3b528b"/>
   </g>
   <g id="patch_91">
    <path d="M 421.016926 119.215 
L 426.96192 119.215 
L 426.96192 119.215 
L 421.016926 119.215 
z
" clip-path="url(#p027ab61fb7)" style="fill: #3b528b"/>
   </g>
   <g id="patch_92">
    <path d="M 426.96192 119.215 
L 432.906914 119.215 
L 432.906914 119.215 
L 426.96192 119.215 
z
" clip-path="url(#p027ab61fb7)" style="fill: #3b528b"/>
   </g>
   <g id="patch_93">
    <path d="M 432.906914 119.215 
L 438.851908 119.215 
L 438.851908 119.215 
L 432.906914 119.215 
z
" clip-path="url(#p027ab61fb7)" style="fill: #3b528b"/>
   </g>
   <g id="patch_94">
    <path d="M 438.851908 119.215 
L 444.796902 119.215 
L 444.796902 119.215 
L 438.851908 119.215 
z
" clip-path="url(#p027ab61fb7)" style="fill: #3b528b"/>
   </g>
   <g id="patch_95">
    <path d="M 444.796902 119.215 
L 450.741896 119.215 
L 450.741896 119.11975 
L 444.796902 119.11975 
z
" clip-path="url(#p027ab61fb7)" style="fill: #3b528b"/>
   </g>
   <g id="patch_96">
    <path d="M 450.741896 119.215 
L 456.68689 119.215 
L 456.68689 119.11975 
L 450.741896 119.11975 
z
" clip-path="url(#p027ab61fb7)" style="fill: #3b528b"/>
   </g>
   <g id="patch_97">
    <path d="M 456.68689 119.215 
L 462.631884 119.215 
L 462.631884 119.215 
L 456.68689 119.215 
z
" clip-path="url(#p027ab61fb7)" style="fill: #3b528b"/>
   </g>
   <g id="patch_98">
    <path d="M 462.631884 119.215 
L 468.576878 119.215 
L 468.576878 119.215 
L 462.631884 119.215 
z
" clip-path="url(#p027ab61fb7)" style="fill: #3b528b"/>
   </g>
   <g id="patch_99">
    <path d="M 468.576878 119.215 
L 474.521872 119.215 
L 474.521872 119.215 
L 468.576878 119.215 
z
" clip-path="url(#p027ab61fb7)" style="fill: #3b528b"/>
   </g>
   <g id="patch_100">
    <path d="M 474.521872 119.215 
L 480.466866 119.215 
L 480.466866 119.215 
L 474.521872 119.215 
z
" clip-path="url(#p027ab61fb7)" style="fill: #3b528b"/>
   </g>
   <g id="patch_101">
    <path d="M 480.466866 119.215 
L 486.41186 119.215 
L 486.41186 119.215 
L 480.466866 119.215 
z
" clip-path="url(#p027ab61fb7)" style="fill: #3b528b"/>
   </g>
   <g id="patch_102">
    <path d="M 486.41186 119.215 
L 492.356854 119.215 
L 492.356854 119.215 
L 486.41186 119.215 
z
" clip-path="url(#p027ab61fb7)" style="fill: #3b528b"/>
   </g>
   <g id="patch_103">
    <path d="M 492.356854 119.215 
L 498.301848 119.215 
L 498.301848 119.215 
L 492.356854 119.215 
z
" clip-path="url(#p027ab61fb7)" style="fill: #3b528b"/>
   </g>
   <g id="patch_104">
    <path d="M 498.301848 119.215 
L 504.246843 119.215 
L 504.246843 119.11975 
L 498.301848 119.11975 
z
" clip-path="url(#p027ab61fb7)" style="fill: #3b528b"/>
   </g>
   <g id="patch_105">
    <path d="M 504.246843 119.215 
L 510.191837 119.215 
L 510.191837 119.215 
L 504.246843 119.215 
z
" clip-path="url(#p027ab61fb7)" style="fill: #3b528b"/>
   </g>
   <g id="patch_106">
    <path d="M 510.191837 119.215 
L 516.136831 119.215 
L 516.136831 119.215 
L 510.191837 119.215 
z
" clip-path="url(#p027ab61fb7)" style="fill: #3b528b"/>
   </g>
   <g id="patch_107">
    <path d="M 516.136831 119.215 
L 522.081825 119.215 
L 522.081825 119.215 
L 516.136831 119.215 
z
" clip-path="url(#p027ab61fb7)" style="fill: #3b528b"/>
   </g>
   <g id="patch_108">
    <path d="M 522.081825 119.215 
L 528.026819 119.215 
L 528.026819 119.215 
L 522.081825 119.215 
z
" clip-path="url(#p027ab61fb7)" style="fill: #3b528b"/>
   </g>
   <g id="patch_109">
    <path d="M 528.026819 119.215 
L 533.971813 119.215 
L 533.971813 119.215 
L 528.026819 119.215 
z
" clip-path="url(#p027ab61fb7)" style="fill: #3b528b"/>
   </g>
   <g id="patch_110">
    <path d="M 533.971813 119.215 
L 539.916807 119.215 
L 539.916807 119.215 
L 533.971813 119.215 
z
" clip-path="url(#p027ab61fb7)" style="fill: #3b528b"/>
   </g>
   <g id="patch_111">
    <path d="M 539.916807 119.215 
L 545.861801 119.215 
L 545.861801 119.215 
L 539.916807 119.215 
z
" clip-path="url(#p027ab61fb7)" style="fill: #3b528b"/>
   </g>
   <g id="patch_112">
    <path d="M 545.861801 119.215 
L 551.806795 119.215 
L 551.806795 119.215 
L 545.861801 119.215 
z
" clip-path="url(#p027ab61fb7)" style="fill: #3b528b"/>
   </g>
   <g id="patch_113">
    <path d="M 551.806795 119.215 
L 557.751789 119.215 
L 557.751789 119.215 
L 551.806795 119.215 
z
" clip-path="url(#p027ab61fb7)" style="fill: #3b528b"/>
   </g>
   <g id="patch_114">
    <path d="M 557.751789 119.215 
L 563.696783 119.215 
L 563.696783 119.215 
L 557.751789 119.215 
z
" clip-path="url(#p027ab61fb7)" style="fill: #3b528b"/>
   </g>
   <g id="patch_115">
    <path d="M 563.696783 119.215 
L 569.641777 119.215 
L 569.641777 119.215 
L 563.696783 119.215 
z
" clip-path="url(#p027ab61fb7)" style="fill: #3b528b"/>
   </g>
   <g id="patch_116">
    <path d="M 569.641777 119.215 
L 575.586771 119.215 
L 575.586771 119.215 
L 569.641777 119.215 
z
" clip-path="url(#p027ab61fb7)" style="fill: #3b528b"/>
   </g>
   <g id="patch_117">
    <path d="M 575.586771 119.215 
L 581.531765 119.215 
L 581.531765 119.215 
L 575.586771 119.215 
z
" clip-path="url(#p027ab61fb7)" style="fill: #3b528b"/>
   </g>
   <g id="patch_118">
    <path d="M 581.531765 119.215 
L 587.476759 119.215 
L 587.476759 119.215 
L 581.531765 119.215 
z
" clip-path="url(#p027ab61fb7)" style="fill: #3b528b"/>
   </g>
   <g id="patch_119">
    <path d="M 587.476759 119.215 
L 593.421753 119.215 
L 593.421753 119.215 
L 587.476759 119.215 
z
" clip-path="url(#p027ab61fb7)" style="fill: #3b528b"/>
   </g>
   <g id="patch_120">
    <path d="M 593.421753 119.215 
L 599.366747 119.215 
L 599.366747 119.215 
L 593.421753 119.215 
z
" clip-path="url(#p027ab61fb7)" style="fill: #3b528b"/>
   </g>
   <g id="patch_121">
    <path d="M 599.366747 119.215 
L 605.311741 119.215 
L 605.311741 119.215 
L 599.366747 119.215 
z
" clip-path="url(#p027ab61fb7)" style="fill: #3b528b"/>
   </g>
   <g id="patch_122">
    <path d="M 605.311741 119.215 
L 611.256735 119.215 
L 611.256735 119.215 
L 605.311741 119.215 
z
" clip-path="url(#p027ab61fb7)" style="fill: #3b528b"/>
   </g>
   <g id="patch_123">
    <path d="M 611.256735 119.215 
L 617.201729 119.215 
L 617.201729 119.215 
L 611.256735 119.215 
z
" clip-path="url(#p027ab61fb7)" style="fill: #3b528b"/>
   </g>
   <g id="patch_124">
    <path d="M 617.201729 119.215 
L 623.146723 119.215 
L 623.146723 119.215 
L 617.201729 119.215 
z
" clip-path="url(#p027ab61fb7)" style="fill: #3b528b"/>
   </g>
   <g id="patch_125">
    <path d="M 623.146723 119.215 
L 629.091717 119.215 
L 629.091717 119.215 
L 623.146723 119.215 
z
" clip-path="url(#p027ab61fb7)" style="fill: #3b528b"/>
   </g>
   <g id="patch_126">
    <path d="M 629.091717 119.215 
L 635.036711 119.215 
L 635.036711 119.215 
L 629.091717 119.215 
z
" clip-path="url(#p027ab61fb7)" style="fill: #3b528b"/>
   </g>
   <g id="patch_127">
    <path d="M 635.036711 119.215 
L 640.981705 119.215 
L 640.981705 119.215 
L 635.036711 119.215 
z
" clip-path="url(#p027ab61fb7)" style="fill: #3b528b"/>
   </g>
   <g id="patch_128">
    <path d="M 640.981705 119.215 
L 646.926699 119.215 
L 646.926699 119.215 
L 640.981705 119.215 
z
" clip-path="url(#p027ab61fb7)" style="fill: #3b528b"/>
   </g>
   <g id="patch_129">
    <path d="M 646.926699 119.215 
L 652.871693 119.215 
L 652.871693 119.215 
L 646.926699 119.215 
z
" clip-path="url(#p027ab61fb7)" style="fill: #3b528b"/>
   </g>
   <g id="patch_130">
    <path d="M 652.871693 119.215 
L 658.816687 119.215 
L 658.816687 119.215 
L 652.871693 119.215 
z
" clip-path="url(#p027ab61fb7)" style="fill: #3b528b"/>
   </g>
   <g id="patch_131">
    <path d="M 658.816687 119.215 
L 664.761681 119.215 
L 664.761681 119.215 
L 658.816687 119.215 
z
" clip-path="url(#p027ab61fb7)" style="fill: #3b528b"/>
   </g>
   <g id="patch_132">
    <path d="M 664.761681 119.215 
L 670.706675 119.215 
L 670.706675 119.215 
L 664.761681 119.215 
z
" clip-path="url(#p027ab61fb7)" style="fill: #3b528b"/>
   </g>
   <g id="patch_133">
    <path d="M 670.706675 119.215 
L 676.651669 119.215 
L 676.651669 119.215 
L 670.706675 119.215 
z
" clip-path="url(#p027ab61fb7)" style="fill: #3b528b"/>
   </g>
   <g id="patch_134">
    <path d="M 676.651669 119.215 
L 682.596663 119.215 
L 682.596663 119.215 
L 676.651669 119.215 
z
" clip-path="url(#p027ab61fb7)" style="fill: #3b528b"/>
   </g>
   <g id="patch_135">
    <path d="M 682.596663 119.215 
L 688.541657 119.215 
L 688.541657 119.215 
L 682.596663 119.215 
z
" clip-path="url(#p027ab61fb7)" style="fill: #3b528b"/>
   </g>
   <g id="patch_136">
    <path d="M 688.541657 119.215 
L 694.486651 119.215 
L 694.486651 119.215 
L 688.541657 119.215 
z
" clip-path="url(#p027ab61fb7)" style="fill: #3b528b"/>
   </g>
   <g id="patch_137">
    <path d="M 694.486651 119.215 
L 700.431645 119.215 
L 700.431645 119.215 
L 694.486651 119.215 
z
" clip-path="url(#p027ab61fb7)" style="fill: #3b528b"/>
   </g>
   <g id="patch_138">
    <path d="M 700.431645 119.215 
L 706.376639 119.215 
L 706.376639 119.215 
L 700.431645 119.215 
z
" clip-path="url(#p027ab61fb7)" style="fill: #3b528b"/>
   </g>
   <g id="patch_139">
    <path d="M 706.376639 119.215 
L 712.321633 119.215 
L 712.321633 119.215 
L 706.376639 119.215 
z
" clip-path="url(#p027ab61fb7)" style="fill: #3b528b"/>
   </g>
   <g id="patch_140">
    <path d="M 712.321633 119.215 
L 718.266627 119.215 
L 718.266627 119.215 
L 712.321633 119.215 
z
" clip-path="url(#p027ab61fb7)" style="fill: #3b528b"/>
   </g>
   <g id="patch_141">
    <path d="M 718.266627 119.215 
L 724.211621 119.215 
L 724.211621 119.215 
L 718.266627 119.215 
z
" clip-path="url(#p027ab61fb7)" style="fill: #3b528b"/>
   </g>
   <g id="patch_142">
    <path d="M 724.211621 119.215 
L 730.156615 119.215 
L 730.156615 119.215 
L 724.211621 119.215 
z
" clip-path="url(#p027ab61fb7)" style="fill: #3b528b"/>
   </g>
   <g id="patch_143">
    <path d="M 730.156615 119.215 
L 736.101609 119.215 
L 736.101609 119.215 
L 730.156615 119.215 
z
" clip-path="url(#p027ab61fb7)" style="fill: #3b528b"/>
   </g>
   <g id="patch_144">
    <path d="M 736.101609 119.215 
L 742.046603 119.215 
L 742.046603 119.215 
L 736.101609 119.215 
z
" clip-path="url(#p027ab61fb7)" style="fill: #3b528b"/>
   </g>
   <g id="patch_145">
    <path d="M 742.046603 119.215 
L 747.991597 119.215 
L 747.991597 119.215 
L 742.046603 119.215 
z
" clip-path="url(#p027ab61fb7)" style="fill: #3b528b"/>
   </g>
   <g id="patch_146">
    <path d="M 747.991597 119.215 
L 753.936591 119.215 
L 753.936591 119.215 
L 747.991597 119.215 
z
" clip-path="url(#p027ab61fb7)" style="fill: #3b528b"/>
   </g>
   <g id="patch_147">
    <path d="M 753.936591 119.215 
L 759.881585 119.215 
L 759.881585 119.215 
L 753.936591 119.215 
z
" clip-path="url(#p027ab61fb7)" style="fill: #3b528b"/>
   </g>
   <g id="patch_148">
    <path d="M 759.881585 119.215 
L 765.826579 119.215 
L 765.826579 119.215 
L 759.881585 119.215 
z
" clip-path="url(#p027ab61fb7)" style="fill: #3b528b"/>
   </g>
   <g id="patch_149">
    <path d="M 765.826579 119.215 
L 771.771573 119.215 
L 771.771573 119.215 
L 765.826579 119.215 
z
" clip-path="url(#p027ab61fb7)" style="fill: #3b528b"/>
   </g>
   <g id="patch_150">
    <path d="M 771.771573 119.215 
L 777.716567 119.215 
L 777.716567 119.215 
L 771.771573 119.215 
z
" clip-path="url(#p027ab61fb7)" style="fill: #3b528b"/>
   </g>
   <g id="patch_151">
    <path d="M 777.716567 119.215 
L 783.661561 119.215 
L 783.661561 119.215 
L 777.716567 119.215 
z
" clip-path="url(#p027ab61fb7)" style="fill: #3b528b"/>
   </g>
   <g id="patch_152">
    <path d="M 783.661561 119.215 
L 789.606555 119.215 
L 789.606555 119.215 
L 783.661561 119.215 
z
" clip-path="url(#p027ab61fb7)" style="fill: #3b528b"/>
   </g>
   <g id="patch_153">
    <path d="M 789.606555 119.215 
L 795.551549 119.215 
L 795.551549 119.215 
L 789.606555 119.215 
z
" clip-path="url(#p027ab61fb7)" style="fill: #3b528b"/>
   </g>
   <g id="patch_154">
    <path d="M 795.551549 119.215 
L 801.496543 119.215 
L 801.496543 119.215 
L 795.551549 119.215 
z
" clip-path="url(#p027ab61fb7)" style="fill: #3b528b"/>
   </g>
   <g id="patch_155">
    <path d="M 801.496543 119.215 
L 807.441537 119.215 
L 807.441537 119.215 
L 801.496543 119.215 
z
" clip-path="url(#p027ab61fb7)" style="fill: #3b528b"/>
   </g>
   <g id="patch_156">
    <path d="M 807.441537 119.215 
L 813.386532 119.215 
L 813.386532 119.215 
L 807.441537 119.215 
z
" clip-path="url(#p027ab61fb7)" style="fill: #3b528b"/>
   </g>
   <g id="patch_157">
    <path d="M 813.386532 119.215 
L 819.331526 119.215 
L 819.331526 119.215 
L 813.386532 119.215 
z
" clip-path="url(#p027ab61fb7)" style="fill: #3b528b"/>
   </g>
   <g id="patch_158">
    <path d="M 819.331526 119.215 
L 825.27652 119.215 
L 825.27652 119.215 
L 819.331526 119.215 
z
" clip-path="url(#p027ab61fb7)" style="fill: #3b528b"/>
   </g>
   <g id="patch_159">
    <path d="M 825.27652 119.215 
L 831.221514 119.215 
L 831.221514 119.215 
L 825.27652 119.215 
z
" clip-path="url(#p027ab61fb7)" style="fill: #3b528b"/>
   </g>
   <g id="patch_160">
    <path d="M 831.221514 119.215 
L 837.166508 119.215 
L 837.166508 119.215 
L 831.221514 119.215 
z
" clip-path="url(#p027ab61fb7)" style="fill: #3b528b"/>
   </g>
   <g id="patch_161">
    <path d="M 837.166508 119.215 
L 843.111502 119.215 
L 843.111502 119.215 
L 837.166508 119.215 
z
" clip-path="url(#p027ab61fb7)" style="fill: #3b528b"/>
   </g>
   <g id="patch_162">
    <path d="M 843.111502 119.215 
L 849.056496 119.215 
L 849.056496 119.215 
L 843.111502 119.215 
z
" clip-path="url(#p027ab61fb7)" style="fill: #3b528b"/>
   </g>
   <g id="patch_163">
    <path d="M 849.056496 119.215 
L 855.00149 119.215 
L 855.00149 119.215 
L 849.056496 119.215 
z
" clip-path="url(#p027ab61fb7)" style="fill: #3b528b"/>
   </g>
   <g id="patch_164">
    <path d="M 855.00149 119.215 
L 860.946484 119.215 
L 860.946484 119.215 
L 855.00149 119.215 
z
" clip-path="url(#p027ab61fb7)" style="fill: #3b528b"/>
   </g>
   <g id="patch_165">
    <path d="M 860.946484 119.215 
L 866.891478 119.215 
L 866.891478 119.215 
L 860.946484 119.215 
z
" clip-path="url(#p027ab61fb7)" style="fill: #3b528b"/>
   </g>
   <g id="patch_166">
    <path d="M 866.891478 119.215 
L 872.836472 119.215 
L 872.836472 119.215 
L 866.891478 119.215 
z
" clip-path="url(#p027ab61fb7)" style="fill: #3b528b"/>
   </g>
   <g id="patch_167">
    <path d="M 872.836472 119.215 
L 878.781466 119.215 
L 878.781466 119.215 
L 872.836472 119.215 
z
" clip-path="url(#p027ab61fb7)" style="fill: #3b528b"/>
   </g>
   <g id="patch_168">
    <path d="M 878.781466 119.215 
L 884.72646 119.215 
L 884.72646 119.215 
L 878.781466 119.215 
z
" clip-path="url(#p027ab61fb7)" style="fill: #3b528b"/>
   </g>
   <g id="patch_169">
    <path d="M 884.72646 119.215 
L 890.671454 119.215 
L 890.671454 119.215 
L 884.72646 119.215 
z
" clip-path="url(#p027ab61fb7)" style="fill: #3b528b"/>
   </g>
   <g id="patch_170">
    <path d="M 890.671454 119.215 
L 896.616448 119.215 
L 896.616448 119.215 
L 890.671454 119.215 
z
" clip-path="url(#p027ab61fb7)" style="fill: #3b528b"/>
   </g>
   <g id="patch_171">
    <path d="M 896.616448 119.215 
L 902.561442 119.215 
L 902.561442 119.215 
L 896.616448 119.215 
z
" clip-path="url(#p027ab61fb7)" style="fill: #3b528b"/>
   </g>
   <g id="patch_172">
    <path d="M 902.561442 119.215 
L 908.506436 119.215 
L 908.506436 119.215 
L 902.561442 119.215 
z
" clip-path="url(#p027ab61fb7)" style="fill: #3b528b"/>
   </g>
   <g id="patch_173">
    <path d="M 908.506436 119.215 
L 914.45143 119.215 
L 914.45143 119.215 
L 908.506436 119.215 
z
" clip-path="url(#p027ab61fb7)" style="fill: #3b528b"/>
   </g>
   <g id="patch_174">
    <path d="M 914.45143 119.215 
L 920.396424 119.215 
L 920.396424 119.215 
L 914.45143 119.215 
z
" clip-path="url(#p027ab61fb7)" style="fill: #3b528b"/>
   </g>
   <g id="patch_175">
    <path d="M 920.396424 119.215 
L 926.341418 119.215 
L 926.341418 119.215 
L 920.396424 119.215 
z
" clip-path="url(#p027ab61fb7)" style="fill: #3b528b"/>
   </g>
   <g id="patch_176">
    <path d="M 926.341418 119.215 
L 932.286412 119.215 
L 932.286412 119.215 
L 926.341418 119.215 
z
" clip-path="url(#p027ab61fb7)" style="fill: #3b528b"/>
   </g>
   <g id="patch_177">
    <path d="M 932.286412 119.215 
L 938.231406 119.215 
L 938.231406 119.215 
L 932.286412 119.215 
z
" clip-path="url(#p027ab61fb7)" style="fill: #3b528b"/>
   </g>
   <g id="patch_178">
    <path d="M 938.231406 119.215 
L 944.1764 119.215 
L 944.1764 119.215 
L 938.231406 119.215 
z
" clip-path="url(#p027ab61fb7)" style="fill: #3b528b"/>
   </g>
   <g id="patch_179">
    <path d="M 944.1764 119.215 
L 950.121394 119.215 
L 950.121394 119.215 
L 944.1764 119.215 
z
" clip-path="url(#p027ab61fb7)" style="fill: #3b528b"/>
   </g>
   <g id="patch_180">
    <path d="M 950.121394 119.215 
L 956.066388 119.215 
L 956.066388 119.215 
L 950.121394 119.215 
z
" clip-path="url(#p027ab61fb7)" style="fill: #3b528b"/>
   </g>
   <g id="patch_181">
    <path d="M 956.066388 119.215 
L 962.011382 119.215 
L 962.011382 119.215 
L 956.066388 119.215 
z
" clip-path="url(#p027ab61fb7)" style="fill: #3b528b"/>
   </g>
   <g id="patch_182">
    <path d="M 962.011382 119.215 
L 967.956376 119.215 
L 967.956376 119.215 
L 962.011382 119.215 
z
" clip-path="url(#p027ab61fb7)" style="fill: #3b528b"/>
   </g>
   <g id="patch_183">
    <path d="M 967.956376 119.215 
L 973.90137 119.215 
L 973.90137 119.215 
L 967.956376 119.215 
z
" clip-path="url(#p027ab61fb7)" style="fill: #3b528b"/>
   </g>
   <g id="patch_184">
    <path d="M 973.90137 119.215 
L 979.846364 119.215 
L 979.846364 119.215 
L 973.90137 119.215 
z
" clip-path="url(#p027ab61fb7)" style="fill: #3b528b"/>
   </g>
   <g id="patch_185">
    <path d="M 979.846364 119.215 
L 985.791358 119.215 
L 985.791358 119.215 
L 979.846364 119.215 
z
" clip-path="url(#p027ab61fb7)" style="fill: #3b528b"/>
   </g>
   <g id="patch_186">
    <path d="M 985.791358 119.215 
L 991.736352 119.215 
L 991.736352 119.215 
L 985.791358 119.215 
z
" clip-path="url(#p027ab61fb7)" style="fill: #3b528b"/>
   </g>
   <g id="patch_187">
    <path d="M 991.736352 119.215 
L 997.681346 119.215 
L 997.681346 119.215 
L 991.736352 119.215 
z
" clip-path="url(#p027ab61fb7)" style="fill: #3b528b"/>
   </g>
   <g id="patch_188">
    <path d="M 997.681346 119.215 
L 1003.62634 119.215 
L 1003.62634 119.215 
L 997.681346 119.215 
z
" clip-path="url(#p027ab61fb7)" style="fill: #3b528b"/>
   </g>
   <g id="patch_189">
    <path d="M 1003.62634 119.215 
L 1009.571334 119.215 
L 1009.571334 119.215 
L 1003.62634 119.215 
z
" clip-path="url(#p027ab61fb7)" style="fill: #3b528b"/>
   </g>
   <g id="patch_190">
    <path d="M 1009.571334 119.215 
L 1015.516328 119.215 
L 1015.516328 119.11975 
L 1009.571334 119.11975 
z
" clip-path="url(#p027ab61fb7)" style="fill: #3b528b"/>
   </g>
   <g id="patch_191">
    <path d="M 1015.516328 119.215 
L 1021.461322 119.215 
L 1021.461322 119.215 
L 1015.516328 119.215 
z
" clip-path="url(#p027ab61fb7)" style="fill: #3b528b"/>
   </g>
   <g id="patch_192">
    <path d="M 1021.461322 119.215 
L 1027.406316 119.215 
L 1027.406316 119.11975 
L 1021.461322 119.11975 
z
" clip-path="url(#p027ab61fb7)" style="fill: #3b528b"/>
   </g>
   <g id="patch_193">
    <path d="M 1027.406316 119.215 
L 1033.35131 119.215 
L 1033.35131 119.215 
L 1027.406316 119.215 
z
" clip-path="url(#p027ab61fb7)" style="fill: #3b528b"/>
   </g>
   <g id="patch_194">
    <path d="M 1033.35131 119.215 
L 1039.296304 119.215 
L 1039.296304 119.215 
L 1033.35131 119.215 
z
" clip-path="url(#p027ab61fb7)" style="fill: #3b528b"/>
   </g>
   <g id="patch_195">
    <path d="M 1039.296304 119.215 
L 1045.241298 119.215 
L 1045.241298 119.215 
L 1039.296304 119.215 
z
" clip-path="url(#p027ab61fb7)" style="fill: #3b528b"/>
   </g>
   <g id="patch_196">
    <path d="M 1045.241298 119.215 
L 1051.186292 119.215 
L 1051.186292 119.215 
L 1045.241298 119.215 
z
" clip-path="url(#p027ab61fb7)" style="fill: #3b528b"/>
   </g>
   <g id="patch_197">
    <path d="M 1051.186292 119.215 
L 1057.131286 119.215 
L 1057.131286 119.215 
L 1051.186292 119.215 
z
" clip-path="url(#p027ab61fb7)" style="fill: #3b528b"/>
   </g>
   <g id="patch_198">
    <path d="M 1057.131286 119.215 
L 1063.07628 119.215 
L 1063.07628 119.215 
L 1057.131286 119.215 
z
" clip-path="url(#p027ab61fb7)" style="fill: #3b528b"/>
   </g>
   <g id="patch_199">
    <path d="M 1063.07628 119.215 
L 1069.021274 119.215 
L 1069.021274 119.215 
L 1063.07628 119.215 
z
" clip-path="url(#p027ab61fb7)" style="fill: #3b528b"/>
   </g>
   <g id="patch_200">
    <path d="M 1069.021274 119.215 
L 1074.966268 119.215 
L 1074.966268 119.215 
L 1069.021274 119.215 
z
" clip-path="url(#p027ab61fb7)" style="fill: #3b528b"/>
   </g>
   <g id="patch_201">
    <path d="M 1074.966268 119.215 
L 1080.911262 119.215 
L 1080.911262 119.215 
L 1074.966268 119.215 
z
" clip-path="url(#p027ab61fb7)" style="fill: #3b528b"/>
   </g>
   <g id="patch_202">
    <path d="M 1080.911262 119.215 
L 1086.856256 119.215 
L 1086.856256 119.11975 
L 1080.911262 119.11975 
z
" clip-path="url(#p027ab61fb7)" style="fill: #3b528b"/>
   </g>
   <g id="line2d_29">
    <path d="M 139.767717 119.215 
L 139.767717 1.8 
" clip-path="url(#p027ab61fb7)" style="fill: none; stroke: #5ec962; stroke-width: 2; stroke-linecap: square"/>
   </g>
   <g id="patch_203">
    <path d="M 37.4025 119.215 
L 37.4025 1.8 
" style="fill: none; stroke: #000000; stroke-width: 0.8; stroke-linejoin: miter; stroke-linecap: square"/>
   </g>
   <g id="patch_204">
    <path d="M 230.509375 119.215 
L 230.509375 1.8 
" style="fill: none; stroke: #000000; stroke-width: 0.8; stroke-linejoin: miter; stroke-linecap: square"/>
   </g>
   <g id="patch_205">
    <path d="M 37.4025 119.215 
L 230.509375 119.215 
" style="fill: none; stroke: #000000; stroke-width: 0.8; stroke-linejoin: miter; stroke-linecap: square"/>
   </g>
   <g id="patch_206">
    <path d="M 37.4025 1.8 
L 230.509375 1.8 
" style="fill: none; stroke: #000000; stroke-width: 0.8; stroke-linejoin: miter; stroke-linecap: square"/>
   </g>
   <g id="legend_1">
    <g id="patch_207">
     <path d="M 177.511875 19.9425 
L 224.909375 19.9425 
Q 226.509375 19.9425 226.509375 18.3425 
L 226.509375 7.4 
Q 226.509375 5.8 224.909375 5.8 
L 177.511875 5.8 
Q 175.911875 5.8 175.911875 7.4 
L 175.911875 18.3425 
Q 175.911875 19.9425 177.511875 19.9425 
z
" style="fill: #ffffff; opacity: 0.8; stroke: #cccccc; stroke-linejoin: miter"/>
    </g>
    <g id="line2d_30">
     <path d="M 179.111875 12.27875 
L 187.111875 12.27875 
L 195.111875 12.27875 
" style="fill: none; stroke: #5ec962; stroke-width: 2; stroke-linecap: square"/>
    </g>
    <g id="text_17">
     <!-- Mean -->
     <g transform="translate(201.511875 15.07875) scale(0.08 -0.08)">
      <defs>
       <path id="DejaVuSans-4d" d="M 628 4666 
L 1569 4666 
L 2759 1491 
L 3956 4666 
L 4897 4666 
L 4897 0 
L 4281 0 
L 4281 4097 
L 3078 897 
L 2444 897 
L 1241 4097 
L 1241 0 
L 628 0 
L 628 4666 
z
" transform="scale(0.015625)"/>
      </defs>
      <use xlink:href="#DejaVuSans-4d"/>
      <use xlink:href="#DejaVuSans-65" x="86.279297"/>
      <use xlink:href="#DejaVuSans-61" x="147.802734"/>
      <use xlink:href="#DejaVuSans-6e" x="209.082031"/>
     </g>
    </g>
   </g>
  </g>
 </g>
 <defs>
  <clipPath id="p027ab61fb7">
   <rect x="37.4025" y="1.8" width="193.106875" height="117.415"/>
  </clipPath>
 </defs>
</svg>
